<?xml version="1.0" encoding="UTF-8"?>
<svg id="Camada_1" xmlns="http://www.w3.org/2000/svg" viewBox="0 0 1126.74 151.34">
  <path d="M66.46,123.48V30.32h42.34c19.76,0,32.47,10.87,32.47,29.22s-12.7,29.36-32.47,29.36h-22.58v34.58h-19.76ZM86.22,71.26h21.17c9.17,0,14.12-4.23,14.12-11.72s-4.94-11.58-14.12-11.58h-21.17v23.29Z"/>
  <path d="M202.24,123.48l-6.92-20.18h-38.25l-7.06,20.18h-21.31l35.71-93.16h24l35.71,93.16h-21.88ZM163.28,86.08h26.11l-12.98-37.41-13.13,37.41Z"/>
  <path d="M229.99,123.48V30.32h41.64c19.76,0,32.18,11.57,32.18,29.92,0,15.53-8.19,23.01-17.64,26.54l20.75,36.7h-23.57l-16.94-33.59h-16.65v33.59h-19.76ZM249.76,72.67h19.76c9.88,0,14.54-4.94,14.54-12.42s-4.66-12.28-14.54-12.28h-19.76v24.7Z"/>
  <polygon points="335.86 123.48 335.86 48.25 306.92 48.25 306.92 30.32 384.55 30.32 384.55 48.25 355.62 48.25 355.62 123.48 335.86 123.48"/>
  <polygon points="425.84 123.48 425.84 92.43 390.83 30.32 413.14 30.32 435.72 72.67 459.01 30.32 480.61 30.32 445.6 92.43 445.6 123.48 425.84 123.48"/>
  <path d="M564.03,123.34V30.18h42.34c19.76,0,32.47,10.87,32.47,29.22s-12.7,29.36-32.47,29.36h-22.58v34.58h-19.76ZM583.79,71.11h21.17c9.17,0,14.12-4.23,14.12-11.72s-4.94-11.58-14.12-11.58h-21.17v23.29Z"/>
  <polygon points="647.1 123.34 647.1 30.18 713.44 30.18 713.44 48.1 666.86 48.1 666.86 66.45 710.61 66.45 710.61 83.81 666.86 83.81 666.86 105.27 713.44 105.27 713.44 123.34 647.1 123.34"/>
  <path d="M718.74,76.76c0-26.82,21.17-47.99,47.99-47.99s47.99,21.17,47.99,47.99c0,28.23-21.17,47.99-47.99,47.99s-47.99-19.76-47.99-47.99M794.68,76.76c0-18.35-12.7-30.06-27.95-30.06s-27.81,11.71-27.81,30.06,12.7,29.92,27.81,29.92,27.95-11.58,27.95-29.92"/>
  <path d="M823.8,123.34V30.18h42.34c19.76,0,32.47,10.87,32.47,29.22s-12.7,29.36-32.47,29.36h-22.58v34.58h-19.76ZM843.56,71.11h21.17c9.18,0,14.12-4.23,14.12-11.72s-4.94-11.58-14.12-11.58h-21.17v23.29Z"/>
  <polygon points="905.6 123.34 905.6 30.18 925.36 30.18 925.36 104.99 969.12 104.99 969.12 123.34 905.6 123.34"/>
  <polygon points="976.28 123.34 976.28 30.18 1042.62 30.18 1042.62 48.1 996.04 48.1 996.04 66.45 1039.79 66.45 1039.79 83.81 996.04 83.81 996.04 105.27 1042.62 105.27 1042.62 123.34 976.28 123.34"/>
  <path d="M482.78,75.36c-.66,2.43-3.12,12.27-1.79,19.95,1.48,8.63,3.61,12.85,6.55,16.86,2.14,2.94,5.42,5.15,8.25,5.57,1.42,1.11,9.28,6.97,17.33,7.01,11.26,0,20.07-2.99,26.12-9.09,8.54-8.61,8.48-20.04,8.46-20.34,1.34-7.69-1.13-17.54-1.79-19.96.38-.41.92-1.08,1.34-1.96.65-1.38.81-2.86.45-4.27-.84-3.33-2.61-9.81-2.61-9.8-.04-.14-.92-3.52-3.85-4.23l-1.17-.28c-.56-2.09-2.82-9.32-8.5-14.95-6.32-6.28-12.67-10.4-16.97-11.04-.1,0-.18-.06-.27-.04-.09-.01-.18.05-.27.05-4.32.66-10.64,4.77-16.97,11.04-5.68,5.63-7.95,12.86-8.51,14.95l-1.13.27c-2.97.62-3.84,4.1-3.87,4.22,0,0-1.77,6.49-2.61,9.82-.46,1.8-.09,3.66,1.1,5.4.25.35.49.63.69.84M482.81,69.58c.84-3.32,2.61-9.79,2.61-9.81,0-.02.64-2.48,2.46-2.86l2.28-.55.13-.57c.02-.08,1.98-8.49,8.14-14.6,5.88-5.83,11.88-9.81,15.91-10.52,3.91.61,9.99,4.62,15.92,10.52,6.18,6.11,8.12,14.52,8.14,14.6l.13.57,2.3.55c1.81.44,2.46,2.84,2.47,2.88,0,0,1.76,6.47,2.61,9.78.25,1,.14,2.02-.33,3.01-.31.66-.7,1.14-.98,1.44-2.07.3-4.28-5.3-4.28-5.3,3.4,36.34-38.89,34.82-38.89,34.82-16.3-7.23-13.93-36.4-14.76-32.98-.73,3.01-2.21,3.13-2.92,3-.03-.04-.07-.08-.1-.13-.87-1.28-1.15-2.58-.82-3.86"/>
</svg>