<?xml version="1.0" encoding="UTF-8"?>
<svg id="Camada_1" xmlns="http://www.w3.org/2000/svg" viewBox="0 0 435.72 255.99">
  <path d="M53.48,124.01v-64h29.09c13.58,0,22.3,7.46,22.3,20.07s-8.73,20.17-22.3,20.17h-15.51v23.76h-13.58ZM67.05,88.14h14.54c6.3,0,9.7-2.91,9.7-8.05s-3.39-7.95-9.7-7.95h-14.54v16Z"/>
  <path d="M146.75,124.01l-4.75-13.87h-26.28l-4.85,13.87h-14.64l24.53-63.99h16.48l24.53,63.99h-15.03ZM119.99,98.32h17.94l-8.92-25.7-9.02,25.7Z"/>
  <path d="M165.82,124.01v-63.99h28.6c13.58,0,22.11,7.95,22.11,20.55,0,10.67-5.62,15.81-12.12,18.23l14.25,25.21h-16.19l-11.64-23.08h-11.44v23.08h-13.58ZM179.39,89.1h13.58c6.79,0,9.99-3.39,9.99-8.53s-3.2-8.44-9.99-8.44h-13.58v16.97Z"/>
  <polygon points="238.54 124.01 238.54 72.33 218.66 72.33 218.66 60.02 271.99 60.02 271.99 72.33 252.11 72.33 252.11 124.01 238.54 124.01"/>
  <polygon points="300.35 124.01 300.35 102.68 276.3 60.02 291.62 60.02 307.14 89.1 323.14 60.02 337.97 60.02 313.92 102.68 313.92 124.01 300.35 124.01"/>
  <path d="M53.48,195.01v-63.99h29.09c13.58,0,22.3,7.46,22.3,20.07s-8.73,20.17-22.3,20.17h-15.51v23.76h-13.58ZM67.05,159.13h14.54c6.3,0,9.7-2.91,9.7-8.05s-3.39-7.95-9.7-7.95h-14.54v16Z"/>
  <polygon points="110.54 195 110.54 131.01 156.11 131.01 156.11 143.32 124.12 143.32 124.12 155.93 154.17 155.93 154.17 167.85 124.12 167.85 124.12 182.59 156.11 182.59 156.11 195 110.54 195"/>
  <path d="M159.76,163.01c0-18.42,14.54-32.97,32.97-32.97s32.97,14.55,32.97,32.97c0,19.39-14.55,32.97-32.97,32.97s-32.97-13.58-32.97-32.97M211.92,163.01c0-12.61-8.73-20.65-19.2-20.65s-19.1,8.05-19.1,20.65,8.73,20.56,19.1,20.56,19.2-7.95,19.2-20.56"/>
  <path d="M231.92,195.01v-63.99h29.09c13.57,0,22.3,7.46,22.3,20.07s-8.73,20.17-22.3,20.17h-15.51v23.76h-13.57ZM245.5,159.13h14.54c6.3,0,9.7-2.91,9.7-8.05s-3.39-7.95-9.7-7.95h-14.54v16Z"/>
  <polygon points="288.12 195 288.12 131.01 301.7 131.01 301.7 182.4 331.75 182.4 331.75 195 288.12 195"/>
  <polygon points="336.67 195 336.67 131.01 382.24 131.01 382.24 143.32 350.24 143.32 350.24 155.93 380.3 155.93 380.3 167.85 350.24 167.85 350.24 182.59 382.24 182.59 382.24 195 336.67 195"/>
  <path d="M335.64,92.18c-.46,1.68-2.15,8.47-1.23,13.77,1.02,5.95,2.49,8.87,4.52,11.64,1.48,2.03,3.74,3.55,5.69,3.84.98.77,6.4,4.81,11.96,4.84,7.77,0,13.85-2.06,18.03-6.27,5.89-5.94,5.85-13.83,5.84-14.04.92-5.3-.78-12.1-1.23-13.77.26-.28.63-.74.92-1.35.45-.95.56-1.97.31-2.95-.58-2.29-1.8-6.76-1.8-6.76-.02-.1-.64-2.43-2.65-2.92l-.81-.19c-.39-1.44-1.94-6.43-5.87-10.31-4.36-4.33-8.74-7.18-11.71-7.62-.07,0-.13-.04-.18-.03-.06,0-.12.03-.19.03-2.98.45-7.34,3.29-11.71,7.62-3.92,3.88-5.48,8.88-5.87,10.32l-.78.19c-2.05.43-2.65,2.83-2.67,2.91,0,0-1.22,4.48-1.8,6.78-.32,1.24-.06,2.53.76,3.72.17.24.34.44.47.58M335.66,88.19c.58-2.29,1.8-6.75,1.8-6.77,0-.02.44-1.71,1.7-1.97l1.57-.38.09-.39c.01-.06,1.37-5.86,5.62-10.08,4.06-4.02,8.2-6.77,10.98-7.26,2.7.42,6.89,3.19,10.98,7.26,4.26,4.21,5.6,10.02,5.62,10.07l.09.39,1.58.38c1.25.3,1.7,1.96,1.7,1.99,0,0,1.22,4.46,1.8,6.75.17.69.1,1.39-.23,2.08-.22.45-.49.79-.68.99-1.43.21-2.95-3.66-2.95-3.66,2.35,25.07-26.84,24.02-26.84,24.02-11.25-4.99-9.61-25.12-10.19-22.75-.5,2.08-1.52,2.16-2.01,2.07-.02-.03-.04-.06-.07-.09-.6-.88-.79-1.78-.57-2.66"/>
</svg>