<?xml version="1.0" standalone="no"?>
<!DOCTYPE svg PUBLIC "-//W3C//DTD SVG 20010904//EN"
 "http://www.w3.org/TR/2001/REC-SVG-20010904/DTD/svg10.dtd">
<svg version="1.0" xmlns="http://www.w3.org/2000/svg"
 width="5949.000000pt" height="3226.000000pt" viewBox="0 0 5949.000000 3226.000000"
 preserveAspectRatio="xMidYMid meet">
<metadata>
Created by potrace 1.16, written by Peter Selinger 2001-2019
</metadata>
<g transform="translate(0.000000,3226.000000) scale(0.100000,-0.100000)"
fill="#000000" stroke="none">
<path d="M18860 32229 c-484 -49 -826 -94 -1195 -155 -1273 -211 -2929 -694
-4745 -1384 -254 -97 -1036 -409 -1568 -625 -90 -36 -167 -65 -171 -63 -16 6
86 222 361 763 151 297 310 614 354 705 l79 165 -3 170 c-2 93 -5 171 -7 173
-2 3 -28 -9 -57 -26 -29 -16 -86 -43 -126 -60 -137 -59 -145 -67 -303 -324
-78 -128 -293 -483 -477 -788 -641 -1063 -652 -1080 -716 -1143 -68 -67 -100
-84 -861 -439 -1682 -787 -2779 -1375 -3675 -1971 -344 -229 -765 -538 -983
-720 -332 -278 -609 -590 -809 -910 -83 -134 -223 -411 -245 -486 -21 -73 -13
-157 21 -215 28 -47 124 -138 141 -133 10 3 98 135 255 379 74 116 105 154
250 298 428 428 840 744 1555 1192 564 353 1146 673 1940 1068 759 376 1867
892 1882 876 4 -4 -2513 -5249 -3384 -7051 -93 -193 -189 -380 -213 -415 -97
-143 -137 -174 -1440 -1107 -396 -283 -973 -690 -1345 -948 -867 -600 -1233
-909 -2490 -2106 -462 -439 -900 -887 -884 -904 6 -5 355 157 614 285 663 327
1377 748 2210 1303 371 248 547 369 1325 912 776 542 1244 865 1248 860 4 -3
-13 -41 -941 -2142 -1554 -3514 -2364 -5362 -2619 -5973 -133 -319 -321 -794
-653 -1650 -406 -1045 -404 -1040 -425 -1138 -74 -343 5 -678 232 -988 75
-102 293 -314 353 -344 35 -17 72 -26 122 -28 64 -4 77 -1 123 24 66 36 108
85 175 204 117 208 45 25 1203 3080 1769 4668 2213 5803 2985 7635 632 1500
969 2279 1013 2348 64 98 169 205 289 292 151 109 736 514 1555 1075 404 277
1228 843 1830 1258 602 416 1428 985 1835 1265 2064 1423 3665 2543 4405 3080
770 560 1405 1065 1926 1533 336 302 803 766 1031 1024 294 334 533 766 642
1160 125 454 22 736 -329 905 -166 79 -493 170 -723 200 -128 16 -422 18 -567
4z m670 -858 c113 -18 206 -33 207 -34 5 -6 -71 -188 -94 -223 -32 -49 -499
-601 -697 -822 -249 -280 -453 -471 -951 -893 -797 -676 -1721 -1386 -2875
-2211 -473 -338 -1039 -732 -2140 -1490 -547 -377 -1148 -791 -1335 -920 -558
-385 -1379 -946 -2645 -1808 -657 -447 -1228 -835 -1268 -863 -40 -27 -75 -48
-77 -45 -3 2 17 56 44 119 27 63 128 299 224 524 369 865 2620 5948 2713 6126
35 66 119 159 184 203 40 27 390 173 975 408 2034 816 3649 1339 5280 1712
548 125 1013 203 1400 235 72 6 148 13 170 15 22 2 184 3 360 2 308 -2 328 -3
525 -35z"/>
<path d="M48275 32224 c-816 -79 -1502 -196 -2295 -390 -1476 -361 -2999 -879
-4965 -1689 -276 -114 -366 -148 -373 -141 -9 10 95 225 346 721 146 286 305
603 355 705 l91 185 4 183 c2 100 1 182 -3 182 -17 0 -297 -143 -324 -166 -34
-29 -117 -161 -701 -1129 -229 -379 -456 -755 -505 -835 -134 -221 -164 -247
-438 -380 -122 -59 -442 -210 -712 -336 -503 -234 -1468 -712 -1860 -920 -984
-522 -1752 -1003 -2425 -1518 -565 -432 -914 -826 -1171 -1321 -102 -196 -129
-270 -129 -352 0 -70 20 -127 57 -168 32 -35 103 -95 112 -95 8 0 102 140 221
330 101 161 186 264 326 396 394 369 635 564 1039 837 951 642 1951 1179 3736
2008 358 166 559 254 564 246 2 -2 -1032 -2158 -2146 -4477 -962 -2002 -1412
-2929 -1446 -2980 -81 -123 -163 -191 -638 -534 -926 -669 -1556 -1117 -2155
-1531 -706 -488 -1137 -838 -1855 -1505 -237 -221 -1021 -965 -1105 -1050
-107 -107 -422 -451 -418 -456 12 -11 696 319 1023 494 854 456 1575 919 3195
2052 527 369 1084 754 1162 805 l28 17 -14 -33 c-8 -19 -317 -718 -686 -1554
-1742 -3941 -2601 -5898 -2852 -6500 -142 -341 -363 -895 -598 -1505 -111
-289 -262 -678 -335 -865 -159 -407 -175 -464 -182 -646 -7 -166 6 -268 52
-406 80 -240 238 -471 445 -651 99 -85 156 -112 240 -112 85 0 132 23 195 92
112 123 185 285 514 1150 323 849 1356 3573 1384 3650 19 53 23 57 65 69 75
21 152 80 292 226 162 168 179 183 730 643 853 713 945 795 1339 1199 259 266
352 351 385 351 10 0 26 -67 26 -111 0 -64 24 -175 54 -249 98 -242 394 -479
707 -566 79 -22 121 -27 264 -31 145 -4 184 -2 268 15 157 33 261 71 432 157
449 227 859 535 1196 896 576 618 1155 1247 1340 1454 214 241 421 501 668
841 68 93 128 173 133 179 4 5 -53 -119 -128 -275 -387 -808 -631 -1341 -668
-1458 -85 -270 -70 -553 42 -777 45 -90 124 -194 207 -273 145 -137 321 -208
545 -219 252 -12 534 58 836 207 310 153 599 377 988 766 529 528 962 1110
1416 1899 217 378 288 470 500 658 74 66 259 244 410 396 379 380 634 670
1250 1421 151 184 351 427 445 540 209 250 284 348 500 650 93 129 195 271
228 315 80 106 289 356 294 352 5 -6 -158 -478 -260 -752 -47 -127 -116 -314
-153 -415 -167 -461 -243 -616 -500 -1015 -511 -792 -871 -1427 -1141 -2009
-126 -271 -515 -1149 -973 -2196 -1133 -2589 -1294 -2936 -2109 -4555 -487
-966 -627 -1256 -665 -1370 -102 -313 -68 -554 104 -725 195 -194 485 -222
702 -67 125 88 185 170 495 667 442 710 673 1126 1045 1880 118 239 380 759
583 1155 439 859 915 1814 1077 2161 174 373 321 708 673 1532 174 408 320
742 323 742 4 0 38 -20 76 -45 150 -97 322 -138 487 -117 162 22 313 91 514
234 254 182 958 695 1120 817 533 402 854 705 1269 1196 153 181 740 767 846
845 74 55 85 60 91 43 4 -10 15 -181 24 -379 16 -379 29 -500 72 -674 52 -215
163 -459 291 -640 86 -122 290 -327 412 -413 119 -84 323 -186 462 -231 228
-74 423 -96 770 -84 571 18 1006 137 1423 389 242 146 284 144 478 -14 313
-255 447 -352 582 -419 232 -116 463 -168 755 -168 324 0 605 71 872 219 134
74 248 163 364 283 184 191 264 340 264 489 0 94 -14 133 -64 176 -59 53 -129
67 -271 57 -66 -5 -210 -9 -320 -9 -224 1 -339 18 -516 76 -230 77 -512 232
-614 339 l-30 31 23 42 c25 48 112 147 483 552 278 305 434 481 581 657 696
831 1275 1859 1844 3272 188 467 198 506 198 786 0 157 -4 199 -23 275 -32
133 -82 226 -166 311 -170 172 -403 208 -671 105 -128 -50 -241 -132 -514
-376 -537 -481 -839 -775 -1215 -1185 -459 -500 -737 -851 -1033 -1300 -622
-945 -609 -925 -721 -1149 -203 -405 -338 -832 -416 -1312 -41 -257 -65 -300
-234 -412 -275 -181 -594 -300 -909 -341 -230 -30 -329 -19 -472 51 -151 74
-295 257 -335 424 -49 211 17 833 145 1354 101 410 299 1029 377 1178 26 50
220 289 692 856 1098 1316 1079 1292 1526 1991 586 915 750 1207 1068 1891
179 384 530 1193 572 1314 70 208 91 526 44 690 -73 256 -328 357 -579 230
-146 -74 -339 -255 -487 -455 -563 -765 -1604 -2262 -2340 -3365 -468 -703
-654 -1011 -1123 -1860 -442 -801 -534 -952 -802 -1320 -167 -231 -157 -235
-138 49 13 198 10 256 -27 430 -98 472 -299 758 -603 860 -441 147 -1072 -105
-1835 -734 -137 -113 -274 -214 -281 -207 -2 2 12 64 31 138 39 151 107 543
126 723 16 163 7 388 -20 489 -38 144 -123 268 -231 337 -119 76 -281 92 -425
42 -116 -41 -192 -96 -349 -256 -422 -429 -547 -569 -2428 -2723 -516 -590
-546 -621 -563 -569 -4 12 -11 154 -15 316 -7 261 -11 310 -34 422 -45 220
-110 360 -211 457 -113 109 -248 151 -419 132 -258 -30 -481 -136 -892 -427
-98 -70 -233 -163 -299 -207 -66 -44 -151 -104 -190 -132 -140 -103 -154 -108
-296 -116 -197 -11 -331 -55 -494 -164 -157 -104 -184 -133 -1545 -1620 -388
-423 -896 -979 -1129 -1235 -233 -256 -507 -555 -609 -665 -267 -288 -840
-858 -1027 -1021 -334 -291 -786 -661 -832 -680 -17 -8 -56 -17 -86 -20 l-54
-6 -6 53 c-4 30 -7 74 -7 99 0 64 119 518 194 744 140 417 256 638 524 994
577 766 990 1377 1504 2222 216 355 820 1374 851 1437 44 87 84 194 102 277
42 191 -27 352 -184 424 -114 53 -289 29 -439 -60 -99 -59 -590 -553 -916
-923 -570 -645 -939 -1172 -1389 -1986 -74 -134 -264 -487 -422 -783 -301
-566 -413 -766 -474 -854 -39 -54 -542 -622 -1031 -1162 -559 -618 -920 -1001
-1459 -1550 -194 -198 -219 -220 -207 -185 8 22 120 315 249 650 834 2166
1052 2698 2201 5398 215 506 320 740 353 790 79 119 188 218 418 378 363 253
838 580 1515 1044 360 247 1044 717 1520 1045 476 328 1331 918 1900 1310
3963 2732 5100 3547 6008 4307 631 529 1295 1170 1591 1538 288 358 504 792
582 1168 24 119 29 294 10 377 -67 284 -321 453 -861 574 -256 57 -536 70
-845 40z m725 -853 c107 -18 196 -33 198 -36 5 -5 -43 -137 -69 -187 -12 -24
-34 -57 -48 -74 -807 -960 -945 -1103 -1621 -1675 -1200 -1016 -2382 -1890
-4860 -3594 -311 -214 -846 -583 -1190 -820 -844 -583 -4195 -2871 -4291
-2930 -5 -4 -6 3 0 17 34 88 446 1047 614 1428 999 2269 2298 5194 2368 5332
36 72 122 164 190 205 60 35 423 186 1064 443 1875 749 3390 1245 4910 1609
779 186 1284 273 1840 315 28 2 196 2 375 1 312 -2 333 -4 520 -34z m9129
-8828 c-348 -661 -677 -1167 -1098 -1692 -166 -206 -167 -207 -119 -116 275
526 623 1083 951 1520 109 145 316 405 323 405 3 0 -23 -53 -57 -117z m-7453
-608 c137 -41 178 -197 140 -535 -62 -538 -243 -1041 -574 -1593 -264 -440
-518 -709 -1057 -1115 -260 -196 -372 -286 -804 -646 -422 -352 -643 -530
-737 -594 -85 -58 -194 -107 -194 -88 0 31 370 1032 679 1839 77 199 176 463
221 587 135 370 198 497 338 681 254 337 610 695 941 948 292 223 744 481 904
516 81 18 85 18 143 0z m-6220 -1699 l30 -104 -33 -158 c-185 -893 -454 -1361
-973 -1692 -58 -37 -280 -183 -493 -325 -214 -143 -404 -265 -422 -273 -39
-16 -49 -4 -36 44 26 90 331 766 454 1005 225 439 542 852 1020 1328 l189 188
107 45 c58 25 111 45 116 46 6 0 24 -47 41 -104z m-2521 -3916 c306 -53 298
-51 283 -65 -404 -370 -790 -705 -814 -705 -17 0 -57 81 -56 114 0 19 168 420
257 615 l39 83 60 -7 c34 -3 138 -19 231 -35z"/>
<path d="M28505 27029 c-250 -34 205 174 -5430 -2482 -1243 -586 -2318 -1092
-2389 -1126 -71 -34 -131 -60 -132 -58 -2 2 89 233 201 513 399 989 452 1148
564 1696 45 218 49 253 41 299 -12 63 -54 142 -94 175 -135 114 -417 161 -641
106 -138 -34 -276 -106 -367 -192 -133 -123 -70 9 -868 -1820 -682 -1563 -723
-1654 -771 -1717 -24 -31 -66 -73 -94 -94 -69 -52 -605 -335 -1720 -909 -280
-144 -578 -298 -662 -341 -206 -107 -238 -118 -382 -135 -228 -27 -366 -64
-540 -145 -132 -62 -269 -154 -390 -261 -302 -267 -491 -402 -1653 -1179 -279
-187 -509 -343 -512 -347 -6 -10 58 -155 71 -159 6 -2 199 55 428 127 230 72
419 129 420 128 2 -2 -213 -275 -477 -608 -264 -333 -626 -790 -805 -1017
-344 -436 -359 -452 -426 -437 -17 4 -70 21 -117 39 -210 82 -439 68 -655 -39
-109 -54 -191 -117 -243 -188 -47 -62 -230 -408 -385 -728 -115 -237 -513
-1096 -1318 -2848 -266 -580 -485 -1050 -487 -1044 -3 11 77 389 154 727 184
797 397 1518 643 2168 115 305 154 428 205 647 64 280 138 783 138 940 0 157
-44 269 -147 378 -145 154 -352 222 -585 192 -345 -43 -648 -150 -895 -314
-154 -103 -585 -510 -869 -821 -566 -620 -1214 -1538 -1753 -2485 -313 -549
-1019 -1875 -1173 -2204 -150 -318 -279 -791 -320 -1168 -15 -140 -12 -331 5
-434 31 -175 141 -447 248 -611 280 -431 681 -479 1142 -138 277 206 902 835
1461 1472 92 104 214 262 369 478 59 83 105 141 102 130 -24 -84 -42 -322 -42
-555 0 -227 3 -268 23 -368 64 -316 197 -567 422 -793 136 -136 202 -172 330
-177 105 -4 166 16 260 87 84 64 129 117 300 355 384 536 527 789 955 1691
454 956 1496 3217 1720 3730 86 198 158 361 159 362 1 1 38 -5 81 -14 63 -13
93 -14 153 -5 123 17 197 61 359 211 330 306 295 264 1692 2011 460 575 876
1092 925 1150 106 124 378 430 382 430 3 0 -93 -281 -441 -1290 -939 -2721
-1237 -3610 -1733 -5175 -392 -1234 -583 -1854 -604 -1956 -30 -142 -32 -432
-5 -559 56 -260 191 -511 377 -699 136 -139 232 -185 370 -179 155 6 242 64
470 312 251 274 649 850 1047 1516 261 438 445 767 1052 1888 78 144 143 262
144 262 1 0 2 -132 2 -292 0 -262 2 -305 22 -410 47 -240 147 -480 280 -668
91 -128 270 -306 349 -348 193 -101 377 -79 598 71 98 66 349 281 408 349 89
102 695 923 1143 1548 226 316 365 522 550 818 59 95 109 171 110 170 2 -2 -3
-32 -10 -68 -116 -567 64 -1151 489 -1585 140 -143 247 -197 385 -197 251 2
512 228 921 797 449 625 832 1277 1570 2670 128 242 319 602 424 800 105 198
234 442 286 542 52 100 95 181 96 180 3 -3 -209 -1319 -255 -1592 -53 -305
-155 -876 -232 -1295 -135 -736 -267 -1233 -446 -1685 -52 -132 -88 -211 -348
-755 -854 -1793 -1687 -4004 -2270 -6030 -437 -1518 -684 -2778 -790 -4030
-63 -742 5 -1245 230 -1698 159 -319 384 -591 562 -679 74 -37 80 -38 182 -38
99 0 111 2 175 32 123 59 278 202 385 358 81 117 226 377 341 610 376 761 648
1598 1090 3350 404 1602 762 3273 1300 6070 201 1043 254 1298 342 1650 112
449 234 822 384 1172 101 237 179 390 355 696 583 1012 1005 1759 1964 3477
1011 1810 1172 2095 1810 3190 604 1037 918 1587 1009 1767 56 111 119 307
193 600 62 247 67 276 67 373 0 89 -4 115 -26 172 -46 115 -133 233 -242 328
-48 41 -52 42 -106 38 -42 -3 -86 -18 -176 -60 -65 -31 -148 -68 -183 -82 -36
-14 -72 -32 -80 -40 -9 -7 -83 -60 -166 -116 -161 -110 -259 -188 -316 -254
-57 -65 -694 -1040 -1164 -1781 -856 -1351 -1667 -2729 -2259 -3838 -32 -60
-60 -106 -62 -104 -5 5 3 81 86 752 124 1007 204 1691 250 2143 18 169 19 215
10 283 -30 221 -156 361 -364 406 -55 12 -105 14 -221 9 -454 -20 -698 -105
-894 -311 -40 -42 -87 -99 -105 -128 -18 -29 -172 -311 -341 -627 -679 -1269
-2258 -4190 -2262 -4186 -2 2 24 92 56 202 304 1024 479 1649 717 2564 82 315
98 390 102 472 8 185 -49 293 -191 363 -98 47 -172 65 -303 72 -311 16 -657
-97 -804 -264 -57 -65 -225 -358 -930 -1623 -926 -1662 -1294 -2296 -1735
-2995 -293 -464 -749 -1138 -839 -1241 l-35 -39 -1 41 c0 23 18 124 39 225 22
101 76 360 121 574 198 952 288 1303 540 2100 448 1416 707 2045 1800 4370
194 413 406 867 472 1010 166 361 192 409 266 487 58 61 81 76 226 150 88 44
280 146 426 226 237 129 3044 1609 4645 2449 1761 925 1732 910 2425 1233 586
274 701 333 752 388 55 59 78 124 78 221 0 77 -8 112 -24 110 -6 -1 -69 -10
-141 -20z m-10626 -6251 c-1251 -2717 -2510 -5285 -3716 -7583 -124 -236 -229
-434 -233 -438 -15 -17 223 709 681 2078 644 1925 1272 3813 1389 4176 110
340 127 414 199 845 57 337 63 364 94 398 12 14 177 106 367 206 406 213 1381
702 1387 696 3 -2 -73 -172 -168 -378z m-9218 -4924 c-59 -260 -102 -350 -235
-492 -96 -103 -128 -154 -196 -317 -61 -146 -425 -880 -580 -1170 -410 -770
-812 -1425 -1247 -2035 -222 -312 -397 -524 -801 -973 -201 -224 -257 -278
-360 -349 l-44 -30 4 173 c5 159 8 186 42 317 126 497 313 918 737 1659 501
875 998 1604 1509 2213 254 301 622 691 812 857 153 134 383 308 386 292 1 -8
-11 -73 -27 -145z m12624 -9355 c-191 -940 -430 -1927 -660 -2729 -67 -236
-198 -660 -202 -656 -11 11 87 604 157 951 111 551 280 1214 461 1800 70 227
281 866 285 862 3 -2 -16 -105 -41 -228z"/>
</g>
</svg>
