<svg xmlns="http://www.w3.org/2000/svg" xmlns:xlink="http://www.w3.org/1999/xlink" width="500" zoomAndPan="magnify" viewBox="0 0 375 374.999991" height="500" preserveAspectRatio="xMidYMid meet" version="1.0"><defs><g/></defs><path fill="#000000" d="M 7.28125 187.148438 C 7.28125 184.199219 7.351562 181.253906 7.496094 178.308594 C 7.640625 175.359375 7.859375 172.421875 8.148438 169.484375 C 8.4375 166.550781 8.796875 163.625 9.230469 160.707031 C 9.664062 157.789062 10.167969 154.882812 10.742188 151.992188 C 11.316406 149.097656 11.964844 146.222656 12.679688 143.359375 C 13.398438 140.5 14.183594 137.65625 15.039062 134.835938 C 15.894531 132.011719 16.820312 129.214844 17.816406 126.4375 C 18.808594 123.660156 19.871094 120.910156 21 118.183594 C 22.125 115.460938 23.320312 112.761719 24.582031 110.097656 C 25.84375 107.429688 27.167969 104.796875 28.558594 102.195312 C 29.949219 99.59375 31.402344 97.03125 32.917969 94.5 C 34.4375 91.96875 36.011719 89.480469 37.652344 87.027344 C 39.289062 84.574219 40.988281 82.164062 42.746094 79.792969 C 44.503906 77.425781 46.316406 75.101562 48.1875 72.820312 C 50.058594 70.542969 51.984375 68.308594 53.964844 66.125 C 55.945312 63.9375 57.980469 61.804688 60.0625 59.71875 C 62.148438 57.632812 64.285156 55.597656 66.46875 53.617188 C 68.65625 51.636719 70.886719 49.710938 73.167969 47.839844 C 75.449219 45.96875 77.773438 44.15625 80.140625 42.398438 C 82.511719 40.640625 84.921875 38.945312 87.375 37.304688 C 89.824219 35.667969 92.316406 34.089844 94.847656 32.574219 C 97.375 31.054688 99.941406 29.601562 102.542969 28.210938 C 105.144531 26.824219 107.777344 25.496094 110.445312 24.234375 C 113.109375 22.976562 115.804688 21.78125 118.53125 20.652344 C 121.253906 19.523438 124.007812 18.460938 126.785156 17.46875 C 129.5625 16.472656 132.359375 15.550781 135.183594 14.691406 C 138.003906 13.835938 140.847656 13.050781 143.707031 12.332031 C 146.570312 11.617188 149.445312 10.972656 152.339844 10.394531 C 155.230469 9.820312 158.136719 9.316406 161.054688 8.882812 C 163.972656 8.449219 166.898438 8.089844 169.832031 7.800781 C 172.769531 7.511719 175.707031 7.292969 178.652344 7.148438 C 181.601562 7.003906 184.546875 6.933594 187.496094 6.933594 C 190.445312 6.933594 193.394531 7.003906 196.339844 7.148438 C 199.285156 7.292969 202.226562 7.511719 205.160156 7.800781 C 208.097656 8.089844 211.023438 8.449219 213.941406 8.882812 C 216.859375 9.316406 219.761719 9.820312 222.65625 10.394531 C 225.546875 10.972656 228.425781 11.617188 231.285156 12.332031 C 234.148438 13.050781 236.988281 13.835938 239.8125 14.691406 C 242.632812 15.550781 245.433594 16.472656 248.210938 17.46875 C 250.988281 18.460938 253.738281 19.523438 256.464844 20.652344 C 259.1875 21.78125 261.882812 22.976562 264.550781 24.234375 C 267.214844 25.496094 269.851562 26.824219 272.449219 28.210938 C 275.050781 29.601562 277.617188 31.054688 280.148438 32.574219 C 282.675781 34.089844 285.167969 35.667969 287.621094 37.304688 C 290.074219 38.945312 292.484375 40.640625 294.851562 42.398438 C 297.222656 44.15625 299.546875 45.96875 301.824219 47.839844 C 304.105469 49.710938 306.339844 51.636719 308.523438 53.617188 C 310.707031 55.597656 312.84375 57.632812 314.929688 59.71875 C 317.015625 61.804688 319.046875 63.9375 321.027344 66.125 C 323.011719 68.308594 324.9375 70.542969 326.808594 72.820312 C 328.679688 75.101562 330.492188 77.425781 332.25 79.792969 C 334.003906 82.164062 335.703125 84.574219 337.34375 87.027344 C 338.980469 89.480469 340.558594 91.96875 342.074219 94.5 C 343.589844 97.03125 345.042969 99.59375 346.433594 102.195312 C 347.824219 104.796875 349.148438 107.429688 350.410156 110.097656 C 351.671875 112.761719 352.867188 115.460938 353.996094 118.183594 C 355.125 120.910156 356.1875 123.660156 357.179688 126.4375 C 358.171875 129.214844 359.097656 132.011719 359.953125 134.835938 C 360.808594 137.65625 361.597656 140.5 362.3125 143.359375 C 363.03125 146.222656 363.675781 149.097656 364.25 151.992188 C 364.828125 154.882812 365.332031 157.789062 365.761719 160.707031 C 366.195312 163.625 366.558594 166.550781 366.847656 169.484375 C 367.136719 172.421875 367.351562 175.363281 367.496094 178.308594 C 367.640625 181.253906 367.714844 184.199219 367.714844 187.148438 C 367.714844 190.097656 367.640625 193.046875 367.496094 195.992188 C 367.351562 198.9375 367.136719 201.878906 366.847656 204.8125 C 366.558594 207.75 366.195312 210.675781 365.761719 213.59375 C 365.332031 216.511719 364.828125 219.414062 364.25 222.308594 C 363.675781 225.203125 363.03125 228.078125 362.3125 230.9375 C 361.597656 233.800781 360.808594 236.640625 359.953125 239.464844 C 359.097656 242.285156 358.171875 245.085938 357.179688 247.863281 C 356.1875 250.640625 355.125 253.390625 353.996094 256.117188 C 352.867188 258.839844 351.671875 261.535156 350.410156 264.203125 C 349.148438 266.867188 347.824219 269.503906 346.433594 272.105469 C 345.042969 274.703125 343.589844 277.269531 342.074219 279.800781 C 340.558594 282.328125 338.980469 284.820312 337.34375 287.273438 C 335.703125 289.726562 334.003906 292.136719 332.25 294.503906 C 330.492188 296.875 328.679688 299.199219 326.808594 301.480469 C 324.9375 303.757812 323.011719 305.992188 321.027344 308.175781 C 319.046875 310.363281 317.015625 312.496094 314.929688 314.582031 C 312.84375 316.667969 310.707031 318.703125 308.523438 320.683594 C 306.339844 322.664062 304.105469 324.589844 301.824219 326.460938 C 299.546875 328.332031 297.222656 330.144531 294.851562 331.902344 C 292.484375 333.660156 290.074219 335.355469 287.621094 336.996094 C 285.167969 338.632812 282.675781 340.210938 280.148438 341.726562 C 277.617188 343.242188 275.050781 344.695312 272.449219 346.085938 C 269.851562 347.476562 267.214844 348.804688 264.550781 350.0625 C 261.882812 351.324219 259.1875 352.519531 256.464844 353.648438 C 253.738281 354.777344 250.988281 355.839844 248.210938 356.832031 C 245.433594 357.824219 242.632812 358.75 239.8125 359.605469 C 236.988281 360.464844 234.148438 361.25 231.285156 361.964844 C 228.425781 362.683594 225.546875 363.328125 222.65625 363.902344 C 219.761719 364.480469 216.859375 364.984375 213.941406 365.417969 C 211.023438 365.847656 208.097656 366.210938 205.160156 366.5 C 202.226562 366.789062 199.285156 367.003906 196.339844 367.148438 C 193.394531 367.292969 190.445312 367.367188 187.496094 367.367188 C 184.546875 367.367188 181.601562 367.292969 178.652344 367.148438 C 175.707031 367.003906 172.769531 366.789062 169.832031 366.5 C 166.898438 366.210938 163.972656 365.847656 161.054688 365.417969 C 158.136719 364.984375 155.230469 364.480469 152.339844 363.902344 C 149.445312 363.328125 146.570312 362.683594 143.707031 361.964844 C 140.847656 361.25 138.003906 360.464844 135.183594 359.605469 C 132.359375 358.75 129.5625 357.824219 126.785156 356.832031 C 124.007812 355.839844 121.253906 354.777344 118.53125 353.648438 C 115.804688 352.519531 113.109375 351.324219 110.445312 350.0625 C 107.777344 348.804688 105.144531 347.476562 102.542969 346.085938 C 99.941406 344.695312 97.375 343.242188 94.847656 341.726562 C 92.316406 340.210938 89.824219 338.632812 87.375 336.996094 C 84.921875 335.355469 82.511719 333.660156 80.140625 331.902344 C 77.773438 330.144531 75.449219 328.332031 73.167969 326.460938 C 70.886719 324.589844 68.65625 322.664062 66.46875 320.683594 C 64.285156 318.703125 62.148438 316.667969 60.0625 314.582031 C 57.980469 312.496094 55.945312 310.363281 53.964844 308.175781 C 51.984375 305.992188 50.058594 303.757812 48.1875 301.480469 C 46.316406 299.199219 44.503906 296.875 42.746094 294.503906 C 40.988281 292.136719 39.289062 289.726562 37.652344 287.273438 C 36.011719 284.820312 34.4375 282.328125 32.917969 279.800781 C 31.402344 277.269531 29.949219 274.703125 28.558594 272.105469 C 27.167969 269.503906 25.84375 266.867188 24.582031 264.203125 C 23.320312 261.535156 22.125 258.839844 21 256.117188 C 19.871094 253.390625 18.808594 250.640625 17.816406 247.863281 C 16.820312 245.085938 15.894531 242.285156 15.039062 239.464844 C 14.183594 236.640625 13.398438 233.800781 12.679688 230.9375 C 11.964844 228.078125 11.316406 225.203125 10.742188 222.308594 C 10.167969 219.414062 9.664062 216.511719 9.230469 213.59375 C 8.796875 210.675781 8.4375 207.75 8.148438 204.8125 C 7.859375 201.878906 7.640625 198.9375 7.496094 195.992188 C 7.351562 193.046875 7.28125 190.097656 7.28125 187.148438 M 46.144531 187.148438 C 46.144531 189.464844 46.203125 191.773438 46.316406 194.085938 C 46.429688 196.394531 46.597656 198.703125 46.824219 201.003906 C 47.050781 203.308594 47.335938 205.601562 47.675781 207.890625 C 48.015625 210.179688 48.410156 212.457031 48.859375 214.726562 C 49.3125 216.996094 49.820312 219.25 50.382812 221.496094 C 50.941406 223.738281 51.558594 225.96875 52.230469 228.183594 C 52.902344 230.394531 53.628906 232.59375 54.40625 234.769531 C 55.1875 236.949219 56.019531 239.105469 56.90625 241.242188 C 57.789062 243.378906 58.726562 245.496094 59.714844 247.585938 C 60.707031 249.675781 61.746094 251.742188 62.835938 253.78125 C 63.925781 255.824219 65.066406 257.835938 66.253906 259.820312 C 67.445312 261.804688 68.683594 263.757812 69.96875 265.679688 C 71.253906 267.605469 72.585938 269.496094 73.960938 271.351562 C 75.339844 273.210938 76.761719 275.035156 78.230469 276.824219 C 79.699219 278.609375 81.207031 280.363281 82.761719 282.078125 C 84.316406 283.789062 85.910156 285.464844 87.546875 287.101562 C 89.183594 288.738281 90.855469 290.332031 92.570312 291.886719 C 94.285156 293.4375 96.035156 294.949219 97.824219 296.417969 C 99.613281 297.882812 101.4375 299.308594 103.292969 300.683594 C 105.152344 302.0625 107.042969 303.394531 108.964844 304.679688 C 110.890625 305.964844 112.84375 307.203125 114.828125 308.390625 C 116.8125 309.582031 118.824219 310.722656 120.863281 311.8125 C 122.90625 312.902344 124.96875 313.941406 127.0625 314.929688 C 129.152344 315.917969 131.265625 316.855469 133.402344 317.742188 C 135.542969 318.628906 137.699219 319.460938 139.878906 320.238281 C 142.054688 321.019531 144.25 321.742188 146.464844 322.414062 C 148.679688 323.085938 150.90625 323.703125 153.152344 324.265625 C 155.394531 324.828125 157.652344 325.335938 159.921875 325.785156 C 162.191406 326.238281 164.46875 326.632812 166.757812 326.972656 C 169.042969 327.3125 171.339844 327.59375 173.640625 327.820312 C 175.945312 328.046875 178.25 328.21875 180.5625 328.332031 C 182.871094 328.445312 185.183594 328.503906 187.496094 328.503906 C 189.808594 328.503906 192.121094 328.445312 194.433594 328.332031 C 196.742188 328.21875 199.050781 328.046875 201.351562 327.820312 C 203.652344 327.59375 205.949219 327.3125 208.238281 326.972656 C 210.527344 326.632812 212.804688 326.238281 215.074219 325.785156 C 217.34375 325.335938 219.597656 324.828125 221.84375 324.265625 C 224.085938 323.703125 226.316406 323.085938 228.53125 322.414062 C 230.742188 321.742188 232.9375 321.019531 235.117188 320.238281 C 237.296875 319.460938 239.453125 318.628906 241.589844 317.742188 C 243.726562 316.855469 245.839844 315.917969 247.933594 314.929688 C 250.023438 313.941406 252.089844 312.902344 254.128906 311.8125 C 256.171875 310.722656 258.183594 309.582031 260.167969 308.390625 C 262.152344 307.203125 264.105469 305.964844 266.027344 304.679688 C 267.953125 303.394531 269.84375 302.0625 271.699219 300.683594 C 273.558594 299.308594 275.382812 297.882812 277.167969 296.417969 C 278.957031 294.949219 280.710938 293.4375 282.421875 291.886719 C 284.136719 290.332031 285.8125 288.738281 287.449219 287.101562 C 289.082031 285.464844 290.679688 283.789062 292.230469 282.078125 C 293.785156 280.363281 295.296875 278.609375 296.765625 276.824219 C 298.230469 275.035156 299.652344 273.210938 301.03125 271.351562 C 302.410156 269.496094 303.742188 267.605469 305.027344 265.679688 C 306.3125 263.757812 307.550781 261.804688 308.738281 259.820312 C 309.929688 257.835938 311.066406 255.824219 312.160156 253.78125 C 313.25 251.742188 314.289062 249.675781 315.277344 247.585938 C 316.265625 245.496094 317.203125 243.378906 318.089844 241.242188 C 318.972656 239.105469 319.808594 236.949219 320.585938 234.769531 C 321.367188 232.59375 322.089844 230.394531 322.761719 228.183594 C 323.433594 225.96875 324.050781 223.738281 324.613281 221.496094 C 325.175781 219.25 325.683594 216.996094 326.132812 214.726562 C 326.585938 212.457031 326.980469 210.179688 327.320312 207.890625 C 327.660156 205.601562 327.941406 203.308594 328.167969 201.003906 C 328.394531 198.703125 328.566406 196.394531 328.679688 194.085938 C 328.792969 191.773438 328.847656 189.464844 328.847656 187.148438 C 328.847656 184.835938 328.792969 182.523438 328.679688 180.214844 C 328.566406 177.902344 328.394531 175.597656 328.167969 173.296875 C 327.941406 170.992188 327.660156 168.699219 327.320312 166.410156 C 326.980469 164.121094 326.585938 161.84375 326.132812 159.574219 C 325.683594 157.304688 325.175781 155.046875 324.613281 152.804688 C 324.050781 150.558594 323.433594 148.332031 322.761719 146.117188 C 322.089844 143.902344 321.367188 141.707031 320.585938 139.53125 C 319.808594 137.351562 318.972656 135.195312 318.089844 133.058594 C 317.203125 130.917969 316.265625 128.804688 315.277344 126.714844 C 314.289062 124.621094 313.25 122.558594 312.160156 120.515625 C 311.066406 118.476562 309.929688 116.464844 308.738281 114.480469 C 307.550781 112.496094 306.3125 110.542969 305.027344 108.617188 C 303.742188 106.695312 302.410156 104.804688 301.03125 102.945312 C 299.652344 101.089844 298.230469 99.265625 296.765625 97.476562 C 295.296875 95.6875 293.785156 93.9375 292.230469 92.222656 C 290.679688 90.507812 289.082031 88.835938 287.449219 87.199219 C 285.8125 85.5625 284.136719 83.96875 282.421875 82.414062 C 280.710938 80.863281 278.957031 79.351562 277.167969 77.882812 C 275.382812 76.414062 273.558594 74.992188 271.699219 73.613281 C 269.84375 72.238281 267.953125 70.90625 266.027344 69.621094 C 264.105469 68.335938 262.152344 67.097656 260.167969 65.910156 C 258.183594 64.71875 256.171875 63.578125 254.128906 62.488281 C 252.089844 61.398438 250.023438 60.359375 247.933594 59.371094 C 245.839844 58.378906 243.726562 57.441406 241.589844 56.558594 C 239.453125 55.671875 237.296875 54.839844 235.117188 54.0625 C 232.9375 53.28125 230.742188 52.554688 228.53125 51.882812 C 226.316406 51.214844 224.085938 50.597656 221.84375 50.035156 C 219.597656 49.472656 217.34375 48.964844 215.074219 48.515625 C 212.804688 48.0625 210.527344 47.667969 208.238281 47.328125 C 205.949219 46.988281 203.652344 46.707031 201.351562 46.480469 C 199.050781 46.25 196.742188 46.082031 194.433594 45.96875 C 192.121094 45.855469 189.808594 45.796875 187.496094 45.796875 C 185.183594 45.796875 182.871094 45.855469 180.5625 45.96875 C 178.25 46.082031 175.945312 46.25 173.640625 46.480469 C 171.339844 46.707031 169.042969 46.988281 166.757812 47.328125 C 164.46875 47.667969 162.191406 48.0625 159.921875 48.515625 C 157.652344 48.964844 155.394531 49.472656 153.152344 50.035156 C 150.90625 50.597656 148.679688 51.214844 146.464844 51.882812 C 144.25 52.554688 142.054688 53.28125 139.878906 54.0625 C 137.699219 54.839844 135.542969 55.671875 133.402344 56.558594 C 131.265625 57.441406 129.152344 58.378906 127.0625 59.371094 C 124.96875 60.359375 122.90625 61.398438 120.863281 62.488281 C 118.824219 63.578125 116.8125 64.71875 114.828125 65.910156 C 112.84375 67.097656 110.890625 68.335938 108.964844 69.621094 C 107.042969 70.90625 105.152344 72.238281 103.292969 73.613281 C 101.4375 74.992188 99.613281 76.414062 97.824219 77.882812 C 96.035156 79.351562 94.285156 80.863281 92.570312 82.414062 C 90.855469 83.96875 89.183594 85.5625 87.546875 87.199219 C 85.910156 88.835938 84.316406 90.507812 82.761719 92.222656 C 81.207031 93.9375 79.699219 95.6875 78.230469 97.476562 C 76.761719 99.265625 75.339844 101.089844 73.960938 102.945312 C 72.585938 104.804688 71.253906 106.695312 69.96875 108.617188 C 68.683594 110.542969 67.445312 112.496094 66.253906 114.480469 C 65.066406 116.464844 63.925781 118.476562 62.835938 120.515625 C 61.746094 122.558594 60.707031 124.621094 59.714844 126.714844 C 58.726562 128.804688 57.789062 130.917969 56.90625 133.058594 C 56.019531 135.195312 55.1875 137.351562 54.40625 139.53125 C 53.628906 141.707031 52.902344 143.902344 52.230469 146.117188 C 51.558594 148.332031 50.941406 150.558594 50.382812 152.804688 C 49.820312 155.046875 49.3125 157.304688 48.859375 159.574219 C 48.410156 161.84375 48.015625 164.121094 47.675781 166.410156 C 47.335938 168.699219 47.050781 170.992188 46.824219 173.296875 C 46.597656 175.597656 46.429688 177.902344 46.316406 180.214844 C 46.203125 182.523438 46.144531 184.835938 46.144531 187.148438 Z M 46.144531 187.148438 " fill-opacity="1" fill-rule="nonzero"/><g fill="#ffffff" fill-opacity="1"><g transform="translate(190.01391, 337.84483)"><g><path d="M -12.15625 21.4375 C -13.664062 21.363281 -14.945312 21.03125 -16 20.4375 C -17.0625 19.851562 -17.847656 19.046875 -18.359375 18.015625 C -18.878906 16.984375 -19.109375 15.785156 -19.046875 14.421875 C -18.984375 13.066406 -18.648438 11.898438 -18.046875 10.921875 C -17.441406 9.941406 -16.582031 9.203125 -15.46875 8.703125 C -14.363281 8.210938 -13.054688 8.003906 -11.546875 8.078125 L -6.296875 8.3125 L -5.90625 -0.265625 L -3.3125 -0.15625 L -4.3125 21.78125 Z M -11.5625 10.28125 C -14.613281 10.144531 -16.207031 11.566406 -16.34375 14.546875 C -16.476562 17.546875 -15.019531 19.113281 -11.96875 19.25 L -6.796875 19.484375 L -6.390625 10.515625 Z M -11.5625 10.28125 "/></g></g></g><g fill="#ffffff" fill-opacity="1"><g transform="translate(171.289083, 337.097872)"><g><path d="M -19.46875 -3.375 L -16.75 -2.90625 L -15.78125 3.359375 L -6.5625 4.96875 L -3.53125 -0.609375 L -0.859375 -0.15625 L -12.15625 20.171875 L -15.6875 19.5625 Z M -13.25 17.28125 L -7.640625 6.984375 L -15.421875 5.625 L -13.625 17.21875 Z M -13.25 17.28125 "/></g></g></g><g fill="#ffffff" fill-opacity="1"><g transform="translate(152.231643, 333.868357)"><g><path d="M -3.171875 -0.96875 L -9.640625 20.015625 L -17.265625 17.65625 C -18.671875 17.21875 -19.773438 16.617188 -20.578125 15.859375 C -21.390625 15.109375 -21.90625 14.234375 -22.125 13.234375 C -22.34375 12.242188 -22.273438 11.171875 -21.921875 10.015625 C -21.523438 8.710938 -20.867188 7.738281 -19.953125 7.09375 C -19.046875 6.445312 -17.835938 6.125 -16.328125 6.125 L -16.234375 5.828125 C -16.828125 5.347656 -17.25 4.753906 -17.5 4.046875 C -17.757812 3.335938 -17.894531 2.363281 -17.90625 1.125 L -17.984375 -5.546875 L -15.4375 -4.765625 L -15.328125 2.3125 C -15.304688 3.132812 -15.195312 3.8125 -15 4.34375 C -14.800781 4.875 -14.484375 5.3125 -14.046875 5.65625 C -13.617188 6 -13.023438 6.285156 -12.265625 6.515625 L -8.546875 7.671875 L -5.640625 -1.734375 Z M -14.28125 8.203125 C -15.582031 7.804688 -16.648438 7.8125 -17.484375 8.21875 C -18.316406 8.625 -18.925781 9.453125 -19.3125 10.703125 C -19.695312 11.941406 -19.660156 12.960938 -19.203125 13.765625 C -18.742188 14.578125 -17.863281 15.179688 -16.5625 15.578125 L -11.46875 17.15625 L -9.1875 9.78125 Z M -14.28125 8.203125 "/></g></g></g><g fill="#ffffff" fill-opacity="1"><g transform="translate(133.957577, 328.237753)"><g><path d="M -24.5625 13.109375 L -23.671875 11.109375 L -17.390625 13.90625 L -9.375 -4.15625 L -7.03125 -3.125 L -15.046875 14.9375 L -8.765625 17.734375 L -9.65625 19.734375 Z M -24.5625 13.109375 "/></g></g></g><g fill="#ffffff" fill-opacity="1"><g transform="translate(118.600706, 321.52001)"><g><path d="M -9.234375 -5.4375 L -7.03125 -4.140625 L -11.40625 3.296875 L -11.640625 18.625 L -14.0625 17.203125 L -13.953125 5.328125 L -14.265625 5.140625 L -24.546875 11.015625 L -26.921875 9.625 L -13.609375 2 Z M -9.234375 -5.4375 "/></g></g></g><g fill="#ffffff" fill-opacity="1"><g transform="translate(103.181322, 312.205286)"><g/></g></g><g fill="#ffffff" fill-opacity="1"><g transform="translate(97.560042, 308.610879)"><g><path d="M -22.6875 9.578125 C -23.84375 8.609375 -24.660156 7.566406 -25.140625 6.453125 C -25.617188 5.347656 -25.75 4.226562 -25.53125 3.09375 C -25.3125 1.957031 -24.765625 0.867188 -23.890625 -0.171875 C -23.015625 -1.203125 -22.035156 -1.921875 -20.953125 -2.328125 C -19.878906 -2.734375 -18.753906 -2.789062 -17.578125 -2.5 C -16.398438 -2.21875 -15.234375 -1.59375 -14.078125 -0.625 L -10.046875 2.765625 L -4.515625 -3.8125 L -2.53125 -2.140625 L -16.671875 14.640625 Z M -15.4375 1.109375 C -17.769531 -0.859375 -19.898438 -0.703125 -21.828125 1.578125 C -23.753906 3.867188 -23.550781 6 -21.21875 7.96875 L -17.25 11.296875 L -11.46875 4.4375 Z M -15.4375 1.109375 "/></g></g></g><g fill="#ffffff" fill-opacity="1"><g transform="translate(83.176834, 296.527924)"><g><path d="M -11.59375 2.75 L -5.578125 -2.859375 L -13.203125 -11.046875 L -11.65625 -12.5 L -2.265625 -2.421875 L -18.3125 12.546875 L -27.53125 2.65625 L -25.96875 1.203125 L -18.515625 9.203125 L -13.15625 4.203125 L -19.734375 -2.859375 L -18.171875 -4.3125 Z M -11.59375 2.75 "/></g></g></g><g fill="#ffffff" fill-opacity="1"><g transform="translate(71.236453, 284.129076)"><g><path d="M -6.734375 -10 C -5.628906 -8.445312 -4.976562 -6.832031 -4.78125 -5.15625 C -4.59375 -3.476562 -4.9375 -1.800781 -5.8125 -0.125 C -6.695312 1.550781 -8.160156 3.117188 -10.203125 4.578125 C -12.253906 6.035156 -14.210938 6.898438 -16.078125 7.171875 C -17.953125 7.453125 -19.648438 7.226562 -21.171875 6.5 C -22.703125 5.78125 -24.019531 4.644531 -25.125 3.09375 C -26.21875 1.539062 -26.859375 -0.078125 -27.046875 -1.765625 C -27.242188 -3.453125 -26.898438 -5.128906 -26.015625 -6.796875 C -25.140625 -8.460938 -23.675781 -10.023438 -21.625 -11.484375 C -19.582031 -12.941406 -17.625 -13.8125 -15.75 -14.09375 C -13.882812 -14.382812 -12.1875 -14.160156 -10.65625 -13.421875 C -9.132812 -12.691406 -7.828125 -11.550781 -6.734375 -10 Z M -8.671875 -8.609375 C -9.992188 -10.472656 -11.585938 -11.488281 -13.453125 -11.65625 C -15.316406 -11.820312 -17.503906 -11.007812 -20.015625 -9.21875 C -22.523438 -7.4375 -24.007812 -5.632812 -24.46875 -3.8125 C -24.9375 -2 -24.507812 -0.160156 -23.1875 1.703125 C -20.445312 5.554688 -16.65625 5.765625 -11.8125 2.328125 C -6.976562 -1.109375 -5.929688 -4.753906 -8.671875 -8.609375 Z M -8.671875 -8.609375 "/></g></g></g><g fill="#ffffff" fill-opacity="1"><g transform="translate(58.116942, 265.612035)"><g><path d="M -24.640625 0.25 C -25.335938 -1.082031 -25.691406 -2.351562 -25.703125 -3.5625 C -25.722656 -4.78125 -25.414062 -5.867188 -24.78125 -6.828125 C -24.15625 -7.796875 -23.238281 -8.597656 -22.03125 -9.234375 C -20.832031 -9.859375 -19.65625 -10.148438 -18.5 -10.109375 C -17.351562 -10.078125 -16.289062 -9.707031 -15.3125 -9 C -14.332031 -8.289062 -13.492188 -7.269531 -12.796875 -5.9375 L -10.359375 -1.265625 L -2.734375 -5.234375 L -1.53125 -2.9375 L -21 7.21875 Z M -14.71875 -4.828125 C -16.125 -7.535156 -18.144531 -8.203125 -20.78125 -6.828125 C -23.4375 -5.441406 -24.0625 -3.394531 -22.65625 -0.6875 L -20.25 3.90625 L -12.3125 -0.234375 Z M -14.71875 -4.828125 "/></g></g></g><g fill="#ffffff" fill-opacity="1"><g transform="translate(49.412055, 248.921106)"><g><path d="M -22.625 2.3125 L -4.09375 -4.75 L -7.859375 -14.625 L -5.875 -15.390625 L -1.1875 -3.09375 L -21.703125 4.734375 Z M -22.625 2.3125 "/></g></g></g><g fill="#ffffff" fill-opacity="1"><g transform="translate(43.526737, 233.766028)"><g><path d="M -11.5 -3.125 L -3.546875 -5.1875 L -6.34375 -16.015625 L -4.28125 -16.546875 L -0.828125 -3.203125 L -22.078125 2.296875 L -25.46875 -10.8125 L -23.40625 -11.359375 L -20.671875 -0.765625 L -13.578125 -2.59375 L -15.984375 -11.9375 L -13.90625 -12.46875 Z M -11.5 -3.125 "/></g></g></g><g fill="#ffffff" fill-opacity="1"><g transform="translate(39.274286, 216.578541)"><g/></g></g><g fill="#ffffff" fill-opacity="1"><g transform="translate(38.057192, 209.632856)"><g/></g></g><g fill="#ffffff" fill-opacity="1"><g transform="translate(36.902636, 203.07331)"><g><path d="M -0.734375 -19.75 L -0.640625 -16.984375 L -6.578125 -14.734375 L -6.21875 -5.390625 L -0.140625 -3.578125 L -0.03125 -0.875 L -22.25 -7.71875 L -22.390625 -11.28125 Z M -19.65625 -9.390625 L -8.421875 -6.03125 L -8.71875 -13.90625 L -19.671875 -9.765625 Z M -19.65625 -9.390625 "/></g></g></g><g fill="#ffffff" fill-opacity="1"><g transform="translate(36.164155, 183.715682)"><g><path d="M 1.125 -9.53125 C 1.007812 -8.144531 0.71875 -6.921875 0.25 -5.859375 C -0.21875 -4.804688 -0.785156 -3.941406 -1.453125 -3.265625 C -2.117188 -2.597656 -2.832031 -2.113281 -3.59375 -1.8125 L -5.1875 -3.359375 L -5.15625 -3.734375 C -2.757812 -4.898438 -1.441406 -6.898438 -1.203125 -9.734375 C -1.054688 -11.378906 -1.289062 -12.628906 -1.90625 -13.484375 C -2.519531 -14.347656 -3.445312 -14.832031 -4.6875 -14.9375 C -5.394531 -15 -6.007812 -14.914062 -6.53125 -14.6875 C -7.050781 -14.46875 -7.515625 -14.066406 -7.921875 -13.484375 C -8.328125 -12.910156 -8.707031 -12.113281 -9.0625 -11.09375 L -9.90625 -8.59375 C -10.53125 -6.726562 -11.378906 -5.382812 -12.453125 -4.5625 C -13.535156 -3.75 -14.84375 -3.410156 -16.375 -3.546875 C -17.46875 -3.640625 -18.414062 -4 -19.21875 -4.625 C -20.019531 -5.257812 -20.613281 -6.132812 -21 -7.25 C -21.394531 -8.363281 -21.523438 -9.671875 -21.390625 -11.171875 C -21.253906 -12.804688 -20.90625 -14.171875 -20.34375 -15.265625 C -19.78125 -16.359375 -19.003906 -17.207031 -18.015625 -17.8125 L -16.4375 -16.421875 L -16.484375 -16.046875 C -17.304688 -15.484375 -17.929688 -14.785156 -18.359375 -13.953125 C -18.785156 -13.117188 -19.046875 -12.128906 -19.140625 -10.984375 C -19.273438 -9.460938 -19.082031 -8.289062 -18.5625 -7.46875 C -18.039062 -6.644531 -17.257812 -6.191406 -16.21875 -6.109375 C -15.21875 -6.023438 -14.40625 -6.238281 -13.78125 -6.75 C -13.15625 -7.269531 -12.625 -8.191406 -12.1875 -9.515625 L -11.34375 -12.0625 C -10.65625 -14.15625 -9.753906 -15.628906 -8.640625 -16.484375 C -7.535156 -17.347656 -6.179688 -17.710938 -4.578125 -17.578125 C -3.335938 -17.472656 -2.265625 -17.101562 -1.359375 -16.46875 C -0.460938 -15.832031 0.207031 -14.925781 0.65625 -13.75 C 1.113281 -12.582031 1.269531 -11.175781 1.125 -9.53125 Z M 1.125 -9.53125 "/></g></g></g><g fill="#ffffff" fill-opacity="1"><g transform="translate(37.594501, 166.152661)"><g><path d="M 2.234375 -9.328125 C 1.960938 -7.972656 1.53125 -6.796875 0.9375 -5.796875 C 0.34375 -4.796875 -0.320312 -4 -1.0625 -3.40625 C -1.8125 -2.820312 -2.578125 -2.425781 -3.359375 -2.21875 L -4.765625 -3.9375 L -4.6875 -4.3125 C -2.15625 -5.1875 -0.609375 -7.015625 -0.046875 -9.796875 C 0.285156 -11.421875 0.195312 -12.691406 -0.3125 -13.609375 C -0.832031 -14.535156 -1.695312 -15.125 -2.90625 -15.375 C -3.613281 -15.519531 -4.238281 -15.507812 -4.78125 -15.34375 C -5.320312 -15.1875 -5.828125 -14.847656 -6.296875 -14.328125 C -6.765625 -13.804688 -7.234375 -13.054688 -7.703125 -12.078125 L -8.828125 -9.6875 C -9.671875 -7.90625 -10.675781 -6.671875 -11.84375 -5.984375 C -13.007812 -5.296875 -14.347656 -5.109375 -15.859375 -5.421875 C -16.929688 -5.640625 -17.828125 -6.109375 -18.546875 -6.828125 C -19.273438 -7.554688 -19.765625 -8.5 -20.015625 -9.65625 C -20.265625 -10.8125 -20.238281 -12.125 -19.9375 -13.59375 C -19.613281 -15.207031 -19.109375 -16.519531 -18.421875 -17.53125 C -17.742188 -18.550781 -16.875 -19.304688 -15.8125 -19.796875 L -14.421875 -18.21875 L -14.5 -17.859375 C -15.375 -17.390625 -16.070312 -16.769531 -16.59375 -16 C -17.125 -15.226562 -17.503906 -14.273438 -17.734375 -13.140625 C -18.046875 -11.648438 -17.988281 -10.46875 -17.5625 -9.59375 C -17.144531 -8.71875 -16.425781 -8.175781 -15.40625 -7.96875 C -14.425781 -7.757812 -13.59375 -7.875 -12.90625 -8.3125 C -12.21875 -8.757812 -11.582031 -9.613281 -11 -10.875 L -9.859375 -13.328125 C -8.941406 -15.304688 -7.878906 -16.660156 -6.671875 -17.390625 C -5.460938 -18.117188 -4.066406 -18.320312 -2.484375 -18 C -1.273438 -17.75 -0.257812 -17.253906 0.5625 -16.515625 C 1.394531 -15.785156 1.960938 -14.8125 2.265625 -13.59375 C 2.578125 -12.375 2.566406 -10.953125 2.234375 -9.328125 Z M 2.234375 -9.328125 "/></g></g></g><g fill="#ffffff" fill-opacity="1"><g transform="translate(40.844444, 148.981793)"><g><path d="M 4.265625 -11.265625 C 3.640625 -9.460938 2.695312 -8 1.4375 -6.875 C 0.175781 -5.75 -1.390625 -5.0625 -3.265625 -4.8125 C -5.140625 -4.5625 -7.265625 -4.847656 -9.640625 -5.671875 C -12.015625 -6.503906 -13.851562 -7.597656 -15.15625 -8.953125 C -16.46875 -10.316406 -17.265625 -11.832031 -17.546875 -13.5 C -17.835938 -15.164062 -17.671875 -16.898438 -17.046875 -18.703125 C -16.421875 -20.492188 -15.472656 -21.953125 -14.203125 -23.078125 C -12.941406 -24.210938 -11.378906 -24.90625 -9.515625 -25.15625 C -7.648438 -25.40625 -5.53125 -25.113281 -3.15625 -24.28125 C -0.78125 -23.457031 1.0625 -22.363281 2.375 -21 C 3.695312 -19.644531 4.5 -18.128906 4.78125 -16.453125 C 5.0625 -14.785156 4.890625 -13.054688 4.265625 -11.265625 Z M 2 -12.0625 C 2.75 -14.21875 2.65625 -16.101562 1.71875 -17.71875 C 0.78125 -19.34375 -1.144531 -20.660156 -4.0625 -21.671875 C -6.96875 -22.691406 -9.296875 -22.859375 -11.046875 -22.171875 C -12.796875 -21.492188 -14.046875 -20.078125 -14.796875 -17.921875 C -16.359375 -13.453125 -14.335938 -10.238281 -8.734375 -8.28125 C -3.140625 -6.332031 0.4375 -7.59375 2 -12.0625 Z M 2 -12.0625 "/></g></g></g><g fill="#ffffff" fill-opacity="1"><g transform="translate(48.287506, 127.589184)"><g><path d="M 5.859375 -10.625 C 4.972656 -8.925781 3.796875 -7.609375 2.328125 -6.671875 C 0.859375 -5.742188 -0.828125 -5.289062 -2.734375 -5.3125 C -4.640625 -5.332031 -6.640625 -5.890625 -8.734375 -6.984375 C -10.847656 -8.066406 -12.460938 -9.378906 -13.578125 -10.921875 C -14.691406 -12.460938 -15.296875 -14.101562 -15.390625 -15.84375 C -15.484375 -17.582031 -15.085938 -19.300781 -14.203125 -21 C -13.265625 -22.820312 -12.132812 -24.160156 -10.8125 -25.015625 C -9.488281 -25.867188 -8 -26.195312 -6.34375 -26 L -6.125 -24.046875 L -6.3125 -23.71875 C -7.6875 -23.75 -8.828125 -23.460938 -9.734375 -22.859375 C -10.648438 -22.253906 -11.453125 -21.28125 -12.140625 -19.9375 C -12.773438 -18.71875 -13.066406 -17.488281 -13.015625 -16.25 C -12.960938 -15.019531 -12.484375 -13.816406 -11.578125 -12.640625 C -10.679688 -11.472656 -9.304688 -10.410156 -7.453125 -9.453125 C -5.617188 -8.492188 -3.960938 -7.988281 -2.484375 -7.9375 C -1.015625 -7.882812 0.234375 -8.191406 1.265625 -8.859375 C 2.304688 -9.523438 3.144531 -10.46875 3.78125 -11.6875 C 4.507812 -13.101562 4.789062 -14.421875 4.625 -15.640625 C 4.457031 -16.867188 3.773438 -18.070312 2.578125 -19.25 L 2.75 -19.578125 L 4.3125 -20.734375 C 5.789062 -19.378906 6.664062 -17.835938 6.9375 -16.109375 C 7.21875 -14.390625 6.859375 -12.5625 5.859375 -10.625 Z M 5.859375 -10.625 "/></g></g></g><g fill="#ffffff" fill-opacity="1"><g transform="translate(57.942888, 109.463237)"><g><path d="M 3.203125 -4.96875 L 1.796875 -2.78125 L -16.640625 -14.6875 L -15.234375 -16.875 Z M 3.203125 -4.96875 "/></g></g></g><g fill="#ffffff" fill-opacity="1"><g transform="translate(62.181668, 102.329125)"><g><path d="M 12.21875 -15.546875 L 10.5 -13.359375 L 4.515625 -15.484375 L -1.265625 -8.125 L 2.203125 -2.8125 L 0.546875 -0.6875 L -12 -20.265625 L -9.78125 -23.078125 Z M -8.921875 -19.875 L -2.515625 -10.046875 L 2.359375 -16.25 L -8.6875 -20.171875 Z M -8.921875 -19.875 "/></g></g></g><g fill="#ffffff" fill-opacity="1"><g transform="translate(74.17686, 87.076077)"><g><path d="M -3.40625 -27.640625 L -1.859375 -26.09375 L -6.71875 -21.234375 L 7.25 -7.25 L 5.4375 -5.4375 L -8.53125 -19.421875 L -13.390625 -14.5625 L -14.9375 -16.109375 Z M -3.40625 -27.640625 "/></g></g></g><g fill="#ffffff" fill-opacity="1"><g transform="translate(86.342864, 75.129043)"><g><path d="M 4.515625 -3.8125 L 2.53125 -2.140625 L -11.625 -18.921875 L -9.640625 -20.59375 Z M 4.515625 -3.8125 "/></g></g></g><g fill="#ffffff" fill-opacity="1"><g transform="translate(92.326628, 69.51735)"><g><path d="M 10.140625 -6.5 C 8.554688 -5.425781 6.921875 -4.8125 5.234375 -4.65625 C 3.554688 -4.507812 1.890625 -4.894531 0.234375 -5.8125 C -1.410156 -6.726562 -2.941406 -8.226562 -4.359375 -10.3125 C -5.773438 -12.394531 -6.601562 -14.367188 -6.84375 -16.234375 C -7.082031 -18.109375 -6.820312 -19.800781 -6.0625 -21.3125 C -5.300781 -22.820312 -4.128906 -24.113281 -2.546875 -25.1875 C -0.984375 -26.257812 0.640625 -26.867188 2.328125 -27.015625 C 4.023438 -27.171875 5.695312 -26.789062 7.34375 -25.875 C 8.988281 -24.957031 10.519531 -23.457031 11.9375 -21.375 C 13.351562 -19.289062 14.179688 -17.3125 14.421875 -15.4375 C 14.671875 -13.570312 14.410156 -11.882812 13.640625 -10.375 C 12.867188 -8.863281 11.703125 -7.570312 10.140625 -6.5 Z M 8.796875 -8.484375 C 10.679688 -9.765625 11.726562 -11.335938 11.9375 -13.203125 C 12.144531 -15.066406 11.378906 -17.273438 9.640625 -19.828125 C 7.910156 -22.367188 6.140625 -23.882812 4.328125 -24.375 C 2.523438 -24.875 0.679688 -24.484375 -1.203125 -23.203125 C -5.117188 -20.546875 -5.410156 -16.765625 -2.078125 -11.859375 C 1.253906 -6.953125 4.878906 -5.828125 8.796875 -8.484375 Z M 8.796875 -8.484375 "/></g></g></g><g fill="#ffffff" fill-opacity="1"><g transform="translate(110.966864, 56.747327)"><g><path d="M 5.265625 -2.53125 L 2.984375 -1.4375 L -6.546875 -21.21875 L -3.6875 -22.59375 L 13.234375 -12.140625 L 13.5625 -12.34375 L 6.296875 -27.40625 L 8.5625 -28.5 L 18.09375 -8.71875 L 15.65625 -7.546875 L -2.171875 -18.859375 L -2.5 -18.640625 Z M 5.265625 -2.53125 "/></g></g></g><g fill="#ffffff" fill-opacity="1"><g transform="translate(131.290973, 47.318491)"><g/></g></g><g fill="#ffffff" fill-opacity="1"><g transform="translate(137.126805, 44.510855)"><g><path d="M 5.53125 -1.375 L 3.21875 -0.796875 L -2.0625 -22.109375 L 1.65625 -23.03125 L 12.578125 -6.59375 L 12.875 -6.65625 L 14.875 -26.3125 L 18.453125 -27.203125 L 23.734375 -5.890625 L 21.375 -5.296875 L 17.0625 -22.671875 L 16.671875 -22.640625 L 14.703125 -3.640625 L 12.203125 -3.03125 L 1.578125 -18.90625 L 1.21875 -18.75 Z M 5.53125 -1.375 "/></g></g></g><g fill="#ffffff" fill-opacity="1"><g transform="translate(162.722684, 38.3984)"><g><path d="M 4.859375 -10.875 L 5.671875 -2.6875 L 16.8125 -3.796875 L 17.015625 -1.6875 L 3.296875 -0.328125 L 1.125 -22.171875 L 14.59375 -23.515625 L 14.8125 -21.390625 L 3.921875 -20.296875 L 4.640625 -13 L 14.25 -13.953125 L 14.46875 -11.828125 Z M 4.859375 -10.875 "/></g></g></g><g fill="#ffffff" fill-opacity="1"><g transform="translate(179.710153, 36.271553)"><g><path d="M 5.703125 0.25 L 3.3125 0.15625 L 4.296875 -21.78125 L 8.125 -21.609375 L 13.9375 -2.734375 L 14.25 -2.71875 L 21.734375 -21 L 25.40625 -20.828125 L 24.421875 1.109375 L 22 1 L 22.8125 -16.890625 L 22.4375 -16.984375 L 15.140625 0.6875 L 12.5625 0.5625 L 6.890625 -17.671875 L 6.515625 -17.640625 Z M 5.703125 0.25 "/></g></g></g><g fill="#ffffff" fill-opacity="1"><g transform="translate(205.921388, 37.590466)"><g><path d="M 3.25 0.65625 L 7.546875 -20.875 L 15.71875 -19.25 C 17.03125 -18.988281 18.109375 -18.550781 18.953125 -17.9375 C 19.796875 -17.320312 20.367188 -16.578125 20.671875 -15.703125 C 20.984375 -14.828125 21.03125 -13.851562 20.8125 -12.78125 C 20.625 -11.84375 20.203125 -11.046875 19.546875 -10.390625 C 18.890625 -9.742188 18.046875 -9.304688 17.015625 -9.078125 L 16.953125 -8.765625 C 18.328125 -8.117188 19.289062 -7.253906 19.84375 -6.171875 C 20.40625 -5.097656 20.546875 -3.851562 20.265625 -2.4375 C 19.859375 -0.4375 18.957031 0.984375 17.5625 1.828125 C 16.175781 2.671875 14.332031 2.863281 12.03125 2.40625 Z M 13.796875 -10.234375 C 14.972656 -9.992188 15.953125 -10.117188 16.734375 -10.609375 C 17.523438 -11.109375 18.03125 -11.90625 18.25 -13 C 18.46875 -14.144531 18.316406 -15.0625 17.796875 -15.75 C 17.273438 -16.445312 16.398438 -16.921875 15.171875 -17.171875 L 9.671875 -18.265625 L 8.296875 -11.328125 Z M 12.265625 0.28125 C 15.316406 0.894531 17.117188 -0.179688 17.671875 -2.953125 C 18.222656 -5.722656 16.972656 -7.414062 13.921875 -8.03125 L 7.875 -9.234375 L 6.21875 -0.921875 Z M 12.265625 0.28125 "/></g></g></g><g fill="#ffffff" fill-opacity="1"><g transform="translate(225.402669, 41.48241)"><g><path d="M 8.875 -7.953125 L 6.28125 -0.15625 L 16.890625 3.375 L 16.21875 5.390625 L 3.140625 1.046875 L 10.0625 -19.78125 L 22.90625 -15.515625 L 22.234375 -13.484375 L 11.859375 -16.9375 L 9.546875 -9.984375 L 18.703125 -6.9375 L 18.03125 -4.90625 Z M 8.875 -7.953125 "/></g></g></g><g fill="#ffffff" fill-opacity="1"><g transform="translate(241.877306, 46.817436)"><g><path d="M 3 1.421875 L 12.375 -18.421875 L 19.59375 -15.015625 C 20.914062 -14.390625 21.925781 -13.644531 22.625 -12.78125 C 23.332031 -11.914062 23.722656 -10.976562 23.796875 -9.96875 C 23.867188 -8.957031 23.644531 -7.898438 23.125 -6.796875 C 22.539062 -5.566406 21.75 -4.695312 20.75 -4.1875 C 19.757812 -3.675781 18.515625 -3.53125 17.015625 -3.75 L 16.890625 -3.46875 C 17.410156 -2.90625 17.742188 -2.253906 17.890625 -1.515625 C 18.046875 -0.785156 18.039062 0.195312 17.875 1.4375 L 17.015625 8.03125 L 14.609375 6.90625 L 15.5 -0.109375 C 15.601562 -0.929688 15.59375 -1.617188 15.46875 -2.171875 C 15.351562 -2.722656 15.101562 -3.203125 14.71875 -3.609375 C 14.332031 -4.015625 13.78125 -4.382812 13.0625 -4.71875 L 9.546875 -6.390625 L 5.34375 2.515625 Z M 15.296875 -6.09375 C 16.535156 -5.507812 17.59375 -5.359375 18.46875 -5.640625 C 19.351562 -5.929688 20.070312 -6.664062 20.625 -7.84375 C 21.175781 -9.019531 21.285156 -10.039062 20.953125 -10.90625 C 20.617188 -11.769531 19.832031 -12.492188 18.59375 -13.078125 L 13.78125 -15.359375 L 10.484375 -8.375 Z M 15.296875 -6.09375 "/></g></g></g><g fill="#ffffff" fill-opacity="1"><g transform="translate(259.149487, 54.943666)"><g><path d="M 7.9375 5.390625 C 6.769531 4.648438 5.820312 3.828125 5.09375 2.921875 C 4.375 2.023438 3.867188 1.125 3.578125 0.21875 C 3.285156 -0.6875 3.179688 -1.546875 3.265625 -2.359375 L 5.359375 -3.0625 L 5.6875 -2.859375 C 5.613281 -0.191406 6.78125 1.898438 9.1875 3.421875 C 10.59375 4.304688 11.816406 4.671875 12.859375 4.515625 C 13.898438 4.359375 14.753906 3.757812 15.421875 2.71875 C 15.804688 2.101562 16.019531 1.515625 16.0625 0.953125 C 16.101562 0.390625 15.957031 -0.203125 15.625 -0.828125 C 15.300781 -1.453125 14.765625 -2.15625 14.015625 -2.9375 L 12.1875 -4.828125 C 10.8125 -6.253906 10.007812 -7.632812 9.78125 -8.96875 C 9.550781 -10.300781 9.847656 -11.617188 10.671875 -12.921875 C 11.253906 -13.835938 12.007812 -14.507812 12.9375 -14.9375 C 13.875 -15.363281 14.925781 -15.488281 16.09375 -15.3125 C 17.269531 -15.144531 18.492188 -14.660156 19.765625 -13.859375 C 21.160156 -12.972656 22.210938 -12.03125 22.921875 -11.03125 C 23.628906 -10.039062 24.023438 -8.96875 24.109375 -7.8125 L 22.140625 -7.046875 L 21.828125 -7.25 C 21.703125 -8.238281 21.367188 -9.113281 20.828125 -9.875 C 20.296875 -10.644531 19.539062 -11.335938 18.5625 -11.953125 C 17.28125 -12.765625 16.15625 -13.128906 15.1875 -13.046875 C 14.21875 -12.960938 13.453125 -12.476562 12.890625 -11.59375 C 12.359375 -10.75 12.175781 -9.925781 12.34375 -9.125 C 12.507812 -8.332031 13.082031 -7.441406 14.0625 -6.453125 L 15.9375 -4.515625 C 17.476562 -2.960938 18.375 -1.488281 18.625 -0.09375 C 18.875 1.289062 18.570312 2.664062 17.71875 4.03125 C 17.050781 5.070312 16.226562 5.847656 15.25 6.359375 C 14.269531 6.878906 13.15625 7.066406 11.90625 6.921875 C 10.664062 6.785156 9.34375 6.273438 7.9375 5.390625 Z M 7.9375 5.390625 "/></g></g></g><g fill="#ffffff" fill-opacity="1"><g transform="translate(274.067961, 64.091496)"><g><path d="M 21.65625 1.046875 L 27.34375 -5.796875 L 29.3125 -4.171875 L 15.28125 12.703125 L 13.3125 11.078125 L 20.25 2.734375 L 11.484375 -4.5625 L 4.546875 3.78125 L 2.546875 2.125 L 16.578125 -14.75 L 18.578125 -13.09375 L 12.890625 -6.25 Z M 21.65625 1.046875 "/></g></g></g><g fill="#ffffff" fill-opacity="1"><g transform="translate(290.912272, 78.496835)"><g><path d="M 4.140625 4.21875 L 2.3125 2.359375 L 17.984375 -13.015625 L 19.8125 -11.15625 Z M 4.140625 4.21875 "/></g></g></g><g fill="#ffffff" fill-opacity="1"><g transform="translate(296.941131, 84.223151)"><g><path d="M 24.0625 -5.234375 C 25.019531 -4.066406 25.628906 -2.890625 25.890625 -1.703125 C 26.160156 -0.523438 26.082031 0.597656 25.65625 1.671875 C 25.238281 2.742188 24.503906 3.710938 23.453125 4.578125 C 22.398438 5.429688 21.304688 5.957031 20.171875 6.15625 C 19.035156 6.351562 17.914062 6.203125 16.8125 5.703125 C 15.707031 5.210938 14.675781 4.382812 13.71875 3.21875 L 10.390625 -0.859375 L 3.734375 4.578125 L 2.09375 2.5625 L 19.09375 -11.328125 Z M 15.375 1.765625 C 17.3125 4.128906 19.4375 4.367188 21.75 2.484375 C 24.070312 0.585938 24.265625 -1.539062 22.328125 -3.90625 L 19.046875 -7.921875 L 12.09375 -2.25 Z M 15.375 1.765625 "/></g></g></g><g fill="#ffffff" fill-opacity="1"><g transform="translate(308.862828, 99.175372)"><g/></g></g><g fill="#ffffff" fill-opacity="1"><g transform="translate(312.85083, 104.990844)"><g/></g></g><g fill="#ffffff" fill-opacity="1"><g transform="translate(316.615502, 110.491446)"><g><path d="M 1.484375 2.953125 L 21.09375 -6.90625 L 24.6875 0.234375 C 25.34375 1.546875 25.675781 2.753906 25.6875 3.859375 C 25.707031 4.972656 25.4375 5.953125 24.875 6.796875 C 24.3125 7.640625 23.488281 8.335938 22.40625 8.890625 C 21.195312 9.492188 20.039062 9.6875 18.9375 9.46875 C 17.84375 9.257812 16.769531 8.617188 15.71875 7.546875 L 15.4375 7.6875 C 15.5 8.445312 15.363281 9.160156 15.03125 9.828125 C 14.707031 10.492188 14.097656 11.269531 13.203125 12.15625 L 8.453125 16.8125 L 7.265625 14.4375 L 12.28125 9.46875 C 12.851562 8.875 13.265625 8.320312 13.515625 7.8125 C 13.773438 7.300781 13.875 6.769531 13.8125 6.21875 C 13.757812 5.664062 13.554688 5.035156 13.203125 4.328125 L 11.453125 0.859375 L 2.65625 5.28125 Z M 15.8125 4.625 C 16.425781 5.84375 17.164062 6.609375 18.03125 6.921875 C 18.90625 7.242188 19.921875 7.113281 21.078125 6.53125 C 22.242188 5.945312 22.957031 5.207031 23.21875 4.3125 C 23.488281 3.425781 23.316406 2.375 22.703125 1.15625 L 20.3125 -3.59375 L 13.421875 -0.125 Z M 15.8125 4.625 "/></g></g></g><g fill="#ffffff" fill-opacity="1"><g transform="translate(325.127681, 127.899229)"><g><path d="M 2.15625 5.5 L 1.203125 3.078125 L 21.640625 -4.9375 L 22.59375 -2.515625 Z M 2.15625 5.5 "/></g></g></g><g fill="#ffffff" fill-opacity="1"><g transform="translate(328.518471, 135.385371)"><g><path d="M 1.578125 5.625 L 0.890625 3.1875 L 22.03125 -2.71875 L 22.890625 0.34375 L 9.625 15.15625 L 9.78125 15.515625 L 25.875 11.015625 L 26.546875 13.4375 L 5.40625 19.34375 L 4.671875 16.734375 L 18.953125 1.15625 L 18.796875 0.8125 Z M 1.578125 5.625 "/></g></g></g><g fill="#ffffff" fill-opacity="1"><g transform="translate(334.509503, 156.508906)"><g><path d="M 1.171875 11.5 C 0.929688 9.664062 1.132812 8 1.78125 6.5 C 2.4375 5 3.550781 3.742188 5.125 2.734375 C 6.707031 1.734375 8.71875 1.078125 11.15625 0.765625 C 13.601562 0.441406 15.722656 0.59375 17.515625 1.21875 C 19.304688 1.84375 20.710938 2.84375 21.734375 4.21875 C 22.753906 5.601562 23.390625 7.269531 23.640625 9.21875 C 23.910156 11.300781 23.753906 13.0625 23.171875 14.5 C 22.597656 15.945312 21.609375 17.035156 20.203125 17.765625 L 18.984375 16.234375 L 18.9375 15.859375 C 20 15.148438 20.710938 14.28125 21.078125 13.25 C 21.441406 12.226562 21.53125 10.984375 21.34375 9.515625 C 20.726562 4.734375 17.453125 2.726562 11.515625 3.5 C 8.441406 3.894531 6.269531 4.785156 5 6.171875 C 3.738281 7.554688 3.242188 9.332031 3.515625 11.5 C 3.773438 13.476562 4.421875 14.90625 5.453125 15.78125 C 6.484375 16.664062 7.972656 16.984375 9.921875 16.734375 L 11.84375 16.484375 L 11.03125 10.28125 L 13.09375 10.015625 L 14.21875 18.6875 L 2.609375 20.1875 L 2.3125 17.8125 L 5.21875 17.4375 L 5.25 17.125 C 4.0625 16.6875 3.128906 15.988281 2.453125 15.03125 C 1.773438 14.082031 1.347656 12.90625 1.171875 11.5 Z M 1.171875 11.5 "/></g></g></g><g fill="#ffffff" fill-opacity="1"><g transform="translate(336.996769, 178.209768)"><g/></g></g><g fill="#ffffff" fill-opacity="1"><g transform="translate(337.489532, 184.903583)"><g><path d="M 10.046875 6.390625 L 1.84375 6 L 1.328125 17.171875 L -0.796875 17.078125 L -0.15625 3.3125 L 21.765625 4.34375 L 21.140625 17.859375 L 19.015625 17.75 L 19.515625 6.828125 L 12.1875 6.484375 L 11.734375 16.125 L 9.59375 16.03125 Z M 10.046875 6.390625 "/></g></g></g><g fill="#ffffff" fill-opacity="1"><g transform="translate(336.812113, 202.206163)"><g><path d="M -3.3125 19.484375 L -2.859375 16.765625 L 3.421875 15.765625 L 5 6.546875 L -0.59375 3.53125 L -0.140625 0.859375 L 20.203125 12.09375 L 19.609375 15.625 Z M 17.3125 13.203125 L 7.015625 7.625 L 5.6875 15.40625 L 17.25 13.5625 Z M 17.3125 13.203125 "/></g></g></g><g fill="#ffffff" fill-opacity="1"><g transform="translate(333.645144, 221.277208)"><g><path d="M -0.96875 3.171875 L 20.03125 9.578125 L 17.703125 17.21875 C 17.273438 18.613281 16.679688 19.71875 15.921875 20.53125 C 15.171875 21.351562 14.296875 21.875 13.296875 22.09375 C 12.304688 22.3125 11.226562 22.242188 10.0625 21.890625 C 8.769531 21.492188 7.796875 20.835938 7.140625 19.921875 C 6.492188 19.015625 6.171875 17.8125 6.171875 16.3125 L 5.875 16.21875 C 5.394531 16.8125 4.800781 17.238281 4.09375 17.5 C 3.382812 17.757812 2.410156 17.890625 1.171875 17.890625 L -5.484375 18 L -4.71875 15.453125 L 2.34375 15.3125 C 3.175781 15.289062 3.859375 15.179688 4.390625 14.984375 C 4.921875 14.796875 5.359375 14.476562 5.703125 14.03125 C 6.046875 13.59375 6.332031 13 6.5625 12.25 L 7.703125 8.53125 L -1.71875 5.65625 Z M 8.234375 14.265625 C 7.835938 15.566406 7.847656 16.628906 8.265625 17.453125 C 8.679688 18.273438 9.515625 18.878906 10.765625 19.265625 C 12.003906 19.640625 13.023438 19.597656 13.828125 19.140625 C 14.628906 18.691406 15.226562 17.816406 15.625 16.515625 L 17.1875 11.421875 L 9.796875 9.171875 Z M 8.234375 14.265625 "/></g></g></g><g fill="#ffffff" fill-opacity="1"><g transform="translate(328.05203, 239.570862)"><g><path d="M 17.734375 14.21875 L -0.421875 6.265625 L -4.65625 15.9375 L -6.609375 15.078125 L -1.328125 3.03125 L 18.78125 11.84375 Z M 17.734375 14.21875 "/></g></g></g><g fill="#ffffff" fill-opacity="1"><g transform="translate(321.61757, 254.501963)"><g><path d="M -5.375 9.265625 L -4.09375 7.046875 L 3.359375 11.375 L 18.6875 11.515625 L 17.28125 13.953125 L 5.421875 13.90625 L 5.234375 14.234375 L 11.171875 24.46875 L 9.796875 26.859375 L 2.078125 13.59375 Z M -5.375 9.265625 "/></g></g></g><g fill="#ffffff" fill-opacity="1"><g transform="translate(312.403385, 269.982628)"><g/></g></g><g fill="#ffffff" fill-opacity="1"><g transform="translate(308.383904, 275.776388)"><g/></g></g><g fill="#ffffff" fill-opacity="1"><g transform="translate(304.587853, 281.250138)"><g><path d="M -13.359375 14.5625 L -11.5 12.53125 L -5.6875 15.09375 L 0.640625 8.1875 L -2.421875 2.640625 L -0.59375 0.640625 L 10.40625 21.125 L 7.984375 23.765625 Z M 7.375 20.5 L 1.734375 10.203125 L -3.59375 16.015625 L 7.125 20.765625 Z M 7.375 20.5 "/></g></g></g><g fill="#ffffff" fill-opacity="1"><g transform="translate(291.620971, 295.549456)"><g><path d="M -9.5 7.546875 C -8.03125 6.316406 -6.4375 5.554688 -4.71875 5.265625 C -3 4.972656 -1.269531 5.203125 0.46875 5.953125 C 2.21875 6.710938 3.851562 8 5.375 9.8125 C 6.894531 11.632812 7.867188 13.46875 8.296875 15.3125 C 8.734375 17.164062 8.660156 18.910156 8.078125 20.546875 C 7.492188 22.191406 6.46875 23.628906 5 24.859375 C 3.425781 26.179688 1.863281 26.976562 0.3125 27.25 C -1.226562 27.53125 -2.726562 27.257812 -4.1875 26.4375 L -3.625 24.5625 L -3.34375 24.328125 C -2.070312 24.890625 -0.898438 25.0625 0.171875 24.84375 C 1.242188 24.632812 2.359375 24.046875 3.515625 23.078125 C 4.566406 22.191406 5.304688 21.171875 5.734375 20.015625 C 6.160156 18.859375 6.1875 17.566406 5.8125 16.140625 C 5.4375 14.710938 4.582031 13.195312 3.25 11.59375 C 1.914062 10.007812 0.582031 8.90625 -0.75 8.28125 C -2.09375 7.65625 -3.375 7.453125 -4.59375 7.671875 C -5.8125 7.890625 -6.945312 8.441406 -8 9.328125 C -9.21875 10.347656 -9.984375 11.457031 -10.296875 12.65625 C -10.617188 13.851562 -10.453125 15.222656 -9.796875 16.765625 L -10.078125 17.015625 L -11.984375 17.46875 C -12.816406 15.644531 -13.023438 13.882812 -12.609375 12.1875 C -12.203125 10.488281 -11.164062 8.941406 -9.5 7.546875 Z M -9.5 7.546875 "/></g></g></g><g fill="#ffffff" fill-opacity="1"><g transform="translate(276.210793, 308.571057)"><g><path d="M -10.421875 6.203125 C -8.804688 5.179688 -7.125 4.640625 -5.375 4.578125 C -3.632812 4.523438 -1.945312 4.988281 -0.3125 5.96875 C 1.3125 6.957031 2.753906 8.453125 4.015625 10.453125 C 5.273438 12.453125 6 14.394531 6.1875 16.28125 C 6.375 18.175781 6.066406 19.894531 5.265625 21.4375 C 4.460938 22.988281 3.253906 24.273438 1.640625 25.296875 C -0.0976562 26.390625 -1.75 26.972656 -3.3125 27.046875 C -4.882812 27.117188 -6.335938 26.65625 -7.671875 25.65625 L -6.875 23.859375 L -6.546875 23.65625 C -5.367188 24.382812 -4.234375 24.71875 -3.140625 24.65625 C -2.054688 24.59375 -0.875 24.15625 0.40625 23.34375 C 1.5625 22.613281 2.429688 21.703125 3.015625 20.609375 C 3.597656 19.515625 3.796875 18.234375 3.609375 16.765625 C 3.429688 15.296875 2.785156 13.679688 1.671875 11.921875 C 0.566406 10.160156 -0.601562 8.882812 -1.84375 8.09375 C -3.09375 7.3125 -4.335938 6.945312 -5.578125 7 C -6.816406 7.050781 -8.015625 7.441406 -9.171875 8.171875 C -10.523438 9.023438 -11.4375 10.023438 -11.90625 11.171875 C -12.382812 12.316406 -12.398438 13.695312 -11.953125 15.3125 L -12.28125 15.5 L -14.1875 15.71875 C -14.78125 13.789062 -14.757812 12.015625 -14.125 10.390625 C -13.5 8.765625 -12.265625 7.367188 -10.421875 6.203125 Z M -10.421875 6.203125 "/></g></g></g><g fill="#ffffff" fill-opacity="1"><g transform="translate(259.087102, 319.371931)"><g><path d="M -0.953125 11.875 L -4.4375 4.4375 L -14.5625 9.1875 L -15.46875 7.265625 L -3 1.40625 L 6.328125 21.28125 L -5.921875 27.03125 L -6.84375 25.09375 L 3.0625 20.453125 L -0.046875 13.8125 L -8.796875 17.90625 L -9.703125 15.96875 Z M -0.953125 11.875 "/></g></g></g><g fill="#ffffff" fill-opacity="1"><g transform="translate(243.40351, 326.813691)"><g><path d="M -9.1875 2.75 C -7.875 2.300781 -6.640625 2.082031 -5.484375 2.09375 C -4.335938 2.101562 -3.316406 2.28125 -2.421875 2.625 C -1.535156 2.976562 -0.804688 3.441406 -0.234375 4.015625 L -1.015625 6.09375 L -1.375 6.21875 C -3.394531 4.46875 -5.753906 4.046875 -8.453125 4.953125 C -10.023438 5.472656 -11.082031 6.1875 -11.625 7.09375 C -12.164062 8.007812 -12.242188 9.050781 -11.859375 10.21875 C -11.628906 10.90625 -11.304688 11.441406 -10.890625 11.828125 C -10.484375 12.222656 -9.9375 12.488281 -9.25 12.625 C -8.5625 12.757812 -7.675781 12.785156 -6.59375 12.703125 L -3.96875 12.5 C -2 12.332031 -0.425781 12.582031 0.75 13.25 C 1.925781 13.914062 2.757812 14.976562 3.25 16.4375 C 3.59375 17.476562 3.632812 18.488281 3.375 19.46875 C 3.113281 20.457031 2.539062 21.351562 1.65625 22.15625 C 0.78125 22.957031 -0.363281 23.597656 -1.78125 24.078125 C -3.34375 24.597656 -4.734375 24.816406 -5.953125 24.734375 C -7.179688 24.648438 -8.269531 24.273438 -9.21875 23.609375 L -8.546875 21.59375 L -8.1875 21.484375 C -7.351562 22.023438 -6.46875 22.328125 -5.53125 22.390625 C -4.601562 22.453125 -3.585938 22.300781 -2.484375 21.9375 C -1.046875 21.457031 -0.0507812 20.8125 0.5 20 C 1.050781 19.195312 1.160156 18.300781 0.828125 17.3125 C 0.515625 16.363281 -0.00390625 15.703125 -0.734375 15.328125 C -1.460938 14.960938 -2.515625 14.835938 -3.890625 14.953125 L -6.59375 15.1875 C -8.769531 15.394531 -10.472656 15.15625 -11.703125 14.46875 C -12.941406 13.789062 -13.816406 12.6875 -14.328125 11.15625 C -14.722656 9.976562 -14.804688 8.851562 -14.578125 7.78125 C -14.359375 6.707031 -13.796875 5.726562 -12.890625 4.84375 C -11.992188 3.96875 -10.757812 3.269531 -9.1875 2.75 Z M -9.1875 2.75 "/></g></g></g><g fill="#ffffff" fill-opacity="1"><g transform="translate(226.712819, 332.463999)"><g><path d="M -9.453125 1.640625 C -8.097656 1.359375 -6.84375 1.289062 -5.6875 1.4375 C -4.539062 1.582031 -3.550781 1.878906 -2.71875 2.328125 C -1.882812 2.773438 -1.210938 3.320312 -0.703125 3.96875 L -1.734375 5.9375 L -2.109375 6.015625 C -3.910156 4.046875 -6.203125 3.347656 -8.984375 3.921875 C -10.609375 4.265625 -11.742188 4.851562 -12.390625 5.6875 C -13.035156 6.53125 -13.226562 7.554688 -12.96875 8.765625 C -12.820312 9.472656 -12.566406 10.046875 -12.203125 10.484375 C -11.847656 10.921875 -11.332031 11.25 -10.65625 11.46875 C -9.988281 11.6875 -9.113281 11.816406 -8.03125 11.859375 L -5.40625 11.953125 C -3.425781 12.015625 -1.890625 12.445312 -0.796875 13.25 C 0.296875 14.050781 1 15.207031 1.3125 16.71875 C 1.53125 17.78125 1.453125 18.785156 1.078125 19.734375 C 0.703125 20.691406 0.0351562 21.515625 -0.921875 22.203125 C -1.878906 22.890625 -3.09375 23.390625 -4.5625 23.703125 C -6.175781 24.035156 -7.585938 24.085938 -8.796875 23.859375 C -10.015625 23.640625 -11.050781 23.144531 -11.90625 22.375 L -11.015625 20.453125 L -10.640625 20.375 C -9.878906 21.007812 -9.035156 21.410156 -8.109375 21.578125 C -7.191406 21.753906 -6.164062 21.726562 -5.03125 21.5 C -3.550781 21.1875 -2.488281 20.660156 -1.84375 19.921875 C -1.207031 19.179688 -0.992188 18.304688 -1.203125 17.296875 C -1.410156 16.316406 -1.847656 15.597656 -2.515625 15.140625 C -3.191406 14.691406 -4.226562 14.445312 -5.625 14.40625 L -8.3125 14.3125 C -10.507812 14.257812 -12.175781 13.828125 -13.3125 13.015625 C -14.457031 12.203125 -15.195312 11.003906 -15.53125 9.421875 C -15.78125 8.203125 -15.734375 7.066406 -15.390625 6.015625 C -15.046875 4.972656 -14.375 4.066406 -13.375 3.296875 C -12.382812 2.535156 -11.078125 1.984375 -9.453125 1.640625 Z M -9.453125 1.640625 "/></g></g></g><g fill="#ffffff" fill-opacity="1"><g transform="translate(209.47664, 336.127328)"><g><path d="M -9.59375 0.53125 C -8.207031 0.40625 -6.953125 0.484375 -5.828125 0.765625 C -4.703125 1.046875 -3.75 1.457031 -2.96875 2 C -2.1875 2.539062 -1.585938 3.15625 -1.171875 3.84375 L -2.40625 5.6875 L -2.78125 5.734375 C -4.351562 3.554688 -6.554688 2.59375 -9.390625 2.84375 C -11.035156 2.988281 -12.222656 3.441406 -12.953125 4.203125 C -13.691406 4.960938 -14.003906 5.960938 -13.890625 7.203125 C -13.828125 7.910156 -13.644531 8.5 -13.34375 8.96875 C -13.039062 9.445312 -12.566406 9.835938 -11.921875 10.140625 C -11.285156 10.441406 -10.429688 10.675781 -9.359375 10.84375 L -6.75 11.234375 C -4.800781 11.523438 -3.328125 12.128906 -2.328125 13.046875 C -1.335938 13.972656 -0.773438 15.207031 -0.640625 16.75 C -0.546875 17.832031 -0.738281 18.828125 -1.21875 19.734375 C -1.707031 20.640625 -2.46875 21.375 -3.5 21.9375 C -4.539062 22.507812 -5.8125 22.863281 -7.3125 23 C -8.945312 23.144531 -10.347656 23.035156 -11.515625 22.671875 C -12.691406 22.316406 -13.664062 21.703125 -14.4375 20.828125 L -13.328125 19.03125 L -12.953125 19 C -12.265625 19.707031 -11.472656 20.203125 -10.578125 20.484375 C -9.679688 20.765625 -8.660156 20.859375 -7.515625 20.765625 C -5.992188 20.628906 -4.875 20.234375 -4.15625 19.578125 C -3.4375 18.921875 -3.125 18.078125 -3.21875 17.046875 C -3.300781 16.046875 -3.648438 15.28125 -4.265625 14.75 C -4.878906 14.21875 -5.878906 13.851562 -7.265625 13.65625 L -9.921875 13.25 C -12.097656 12.945312 -13.707031 12.320312 -14.75 11.375 C -15.789062 10.425781 -16.382812 9.144531 -16.53125 7.53125 C -16.632812 6.300781 -16.453125 5.1875 -15.984375 4.1875 C -15.515625 3.1875 -14.742188 2.363281 -13.671875 1.71875 C -12.597656 1.070312 -11.238281 0.675781 -9.59375 0.53125 Z M -9.59375 0.53125 "/></g></g></g><g fill="#ffffff" fill-opacity="1"><g transform="translate(191.559507, 337.518309)"><g/></g></g></svg>